<?xml version="1.0" standalone="no"?><!DOCTYPE svg PUBLIC "-//W3C//DTD SVG 1.1//EN" "http://www.w3.org/Graphics/SVG/1.1/DTD/svg11.dtd">
<svg t="1620809636131" class="icon" viewBox="0 0 1024 1024" version="1.1"
  xmlns="http://www.w3.org/2000/svg" p-id="3530"
  xmlns:xlink="http://www.w3.org/1999/xlink" width="64" height="64">
  <defs>
    <style type="text/css"></style>
  </defs>
  <path d="M906.666667 429.226667a32 32 0 0 0 22.613333-54.4l-196.053333-194.986667a32.64 32.64 0 0 0-45.226667 0 32 32 0 0 0 0 45.013333l141.44 140.586667H117.333333a32 32 0 1 0 0 64M117.333333 594.773333a32 32 0 0 0-22.613333 54.4l196.053333 194.986667a32.64 32.64 0 0 0 45.226667 0 32 32 0 0 0 0-45.013333l-141.44-140.586667H906.666667a32 32 0 1 0 0-64" p-id="3531" fill="currentColor"></path>
</svg>