<?xml version="1.0" standalone="no"?><!DOCTYPE svg PUBLIC "-//W3C//DTD SVG 1.1//EN" "http://www.w3.org/Graphics/SVG/1.1/DTD/svg11.dtd">
<svg t="1622197379868" class="icon" viewBox="-100 -100 1224 1224" version="1.1"
  xmlns="http://www.w3.org/2000/svg" p-id="11760"
  xmlns:xlink="http://www.w3.org/1999/xlink" width="64" height="64">
  <defs>
    <style type="text/css"></style>
  </defs>
  <path d="M950.857143 932.571429V310.857143q0-7.428571-5.428572-12.857143T932.571429 292.571429H310.857143q-7.428571 0-12.857143 5.428571T292.571429 310.857143v621.714286q0 7.428571 5.428571 12.857142t12.857143 5.428572h621.714286q7.428571 0 12.857142-5.428572t5.428572-12.857142z m73.142857-621.714286v621.714286q0 37.714286-26.857143 64.571428t-64.571428 26.857143H310.857143q-37.714286 0-64.571429-26.857143t-26.857143-64.571428V310.857143q0-37.714286 26.857143-64.571429t64.571429-26.857143h621.714286q37.714286 0 64.571428 26.857143t26.857143 64.571429z m-219.428571-219.428572v91.428572h-73.142858V91.428571q0-7.428571-5.428571-12.857142T713.142857 73.142857H91.428571q-7.428571 0-12.857142 5.428572T73.142857 91.428571v621.714286q0 7.428571 5.428572 12.857143t12.857142 5.428571h91.428572v73.142858H91.428571q-37.714286 0-64.571428-26.857143T0 713.142857V91.428571Q0 53.714286 26.857143 26.857143T91.428571 0h621.714286q37.714286 0 64.571429 26.857143t26.857143 64.571428z" p-id="11761" fill="currentColor"></path>
</svg>