<?xml version="1.0" standalone="no"?><!DOCTYPE svg PUBLIC "-//W3C//DTD SVG 1.1//EN" "http://www.w3.org/Graphics/SVG/1.1/DTD/svg11.dtd">
<svg t="1608280600316" class="icon" viewBox="0 0 1024 1024" version="1.1"
  xmlns="http://www.w3.org/2000/svg" p-id="6828"
  xmlns:xlink="http://www.w3.org/1999/xlink" width="200" height="200">
  <defs>
    <style type="text/css"></style>
  </defs>
  <path d="M322.746182 122.740364c26.996364-4.328727 60.648727-6.376727 101.376-6.376728 54.411636 0 93.090909 7.819636 152.017454 26.344728 14.615273 4.654545 21.457455 6.795636 28.299637 8.843636 30.72 9.216 52.130909 13.218909 76.334545 13.218909 32.907636 0 62.789818-2.792727 89.553455-8.192a92.858182 92.858182 0 0 1 111.383272 90.996364v278.993454c0 42.542545-28.951273 79.685818-70.283636 90.065455-32.116364 8.052364-75.357091 11.822545-130.699636 11.822545-56.645818 0-91.694545-7.447273-148.014546-26.717091l-7.493818-2.56c-41.890909-14.242909-64.558545-19.130182-101.096727-19.130181-34.164364 0-62.184727 1.815273-83.688727 5.306181a93.556364 93.556364 0 0 1-14.615273 1.210182v340.340364c0 25.6-20.759273 46.359273-46.312727 46.359273h-0.465455A46.312727 46.312727 0 0 1 232.727273 926.906182V139.403636c0-25.6 20.759273-46.312727 46.312727-46.312727h0.465455c19.688727 0 36.538182 12.288 43.240727 29.649455zM325.818182 493.707636V216.808727 493.381818c26.903273-4.375273 59.578182-6.516364 98.304-6.516363 48.64 0 80.384 6.888727 131.118545 24.15709l7.540364 2.606546c47.476364 16.197818 73.262545 21.690182 117.946182 21.690182 48.267636 0 84.526545-3.165091 107.892363-8.983273v-278.807273c-32.907636 6.981818-68.933818 10.286545-107.892363 10.286546-34.676364 0-64.418909-5.538909-103.098182-17.175273-7.447273-2.234182-14.987636-4.608-29.416727-9.169455-50.641455-15.918545-80.989091-22.062545-124.090182-22.062545-43.613091 0-76.613818 2.606545-98.304 7.400727z" p-id="6829" fill="currentColor"></path>
</svg>