<?xml version="1.0" standalone="no"?><!DOCTYPE svg PUBLIC "-//W3C//DTD SVG 1.1//EN" "http://www.w3.org/Graphics/SVG/1.1/DTD/svg11.dtd">
<svg t="1622197690879" class="icon" viewBox="100 100 824 824" version="1.1"
  xmlns="http://www.w3.org/2000/svg" p-id="16475"
  xmlns:xlink="http://www.w3.org/1999/xlink" width="64" height="64">
  <defs>
    <style type="text/css"></style>
  </defs>
  <path d="M808.106667 171.349333c23.466667 0 42.496 18.986667 42.496 42.453334v594.346666c0 23.466667-19.029333 42.453333-42.453334 42.453334H213.76a42.453333 42.453333 0 0 1-42.453333-42.453334V213.76c0-23.466667 18.986667-42.453333 42.453333-42.453333h594.346667z m0 42.453334H213.76v594.346666h594.346667V213.76z m-343.253334 122.666666l56.234667 301.866667H457.813333l-10.581333-65.109333H349.226667l-30.037334 65.109333H256l146.944-301.866667h61.994667z m97.962667 216.96h152.832c3.797333 0 7.125333 2.56 8.106667 6.229334l0.384 2.261333v25.472c0 3.84-2.56 7.168-6.272 8.192l-2.261334 0.298667H562.773333a8.490667 8.490667 0 0 1-8.192-6.229334l-0.298666-2.261333v-25.472c0-3.84 2.517333-7.168 6.186666-8.192l2.304-0.298667h152.832-152.832zM420.906667 418.986667l-49.493334 106.752h67.968l-17.237333-106.581334-1.237333-0.170666z m141.909333 7.04h152.832c3.797333 0 7.125333 2.56 8.106667 6.229333l0.384 2.261333v25.472c0 3.84-2.56 7.168-6.272 8.192l-2.261334 0.298667H562.773333a8.490667 8.490667 0 0 1-8.192-6.272l-0.298666-2.218667v-25.472c0-3.84 2.517333-7.168 6.186666-8.192l2.304-0.298666h152.832-152.832z" fill="currentColor" p-id="16476"></path>
</svg>