<?xml version="1.0" standalone="no"?><!DOCTYPE svg PUBLIC "-//W3C//DTD SVG 1.1//EN" "http://www.w3.org/Graphics/SVG/1.1/DTD/svg11.dtd">
<svg t="1620809373415" class="icon" viewBox="0 0 1024 1024" version="1.1"
  xmlns="http://www.w3.org/2000/svg" p-id="1377"
  xmlns:xlink="http://www.w3.org/1999/xlink" width="64" height="64">
  <defs>
    <style type="text/css"></style>
  </defs>
  <path d="M546.77 138.57l-77.26 32.86 60.37 135.6zM685.92 62.82L568.94 304.94 771.77 138.1zM293.09 81.09l-68.02 93.08 238.96 108.61zM138.79 463.9v495.39h327.1V385.18H217.51c-43.41 0-78.72 35.31-78.72 78.72z m267.1 435.39h-207.1V463.9c0-10.32 8.4-18.72 18.72-18.72h188.38v454.11zM777.3 385.18H528.92v574.11h327.1V463.9c0-43.41-35.31-78.72-78.72-78.72z m18.72 514.11h-207.1V445.18H777.3c10.32 0 18.72 8.4 18.72 18.72v435.39z" fill="currentColor" p-id="1378"></path>
</svg>