<svg t="1657002532432" class="icon" viewBox="0 0 1024 1024" version="1.1" xmlns="http://www.w3.org/2000/svg" p-id="60295" width="48" height="48"><path d="M886.656 137.152a30.656 30.656 0 0 1 0 44.096L162.56 886.848a32.64 32.64 0 0 1-45.248 0 30.656 30.656 0 0 1 0-44.096l116.672-113.536C173.952 686.848 96 611.2 0 502.208 152.832 294.4 323.456 190.4 512 190.4c76.8 0 150.656 17.28 221.568 51.776l107.776-105.024a32.64 32.64 0 0 1 45.312 0z m-53.248 170.432c34.56 28.928 98.048 93.824 190.592 194.624-152.832 207.936-323.456 311.872-512 311.872-63.104 0-124.16-11.648-183.232-34.944l51.392-48c42.816 13.696 86.656 20.544 131.84 20.544 153.728 0 296.256-80.064 429.312-245.76-71.872-77.312-122.24-128.064-149.632-151.04l41.728-47.36z m-140.544 131.776c7.232 19.648 11.136 40.768 11.136 62.848 0 103.36-85.952 187.136-192 187.136-22.528 0-44.16-3.84-64.256-10.752l53.376-52.096c3.584 0.32 7.232 0.448 10.88 0.448 70.72 0 128-55.808 128-124.736 0-3.648-0.128-7.232-0.448-10.816l53.312-52.032zM512 252.736c-153.92 0-296.64 80.32-429.824 246.464 82.688 91.008 149.248 153.024 197.76 185.28l75.52-73.856A183.04 183.04 0 0 1 320 502.208c0-103.36 85.952-187.072 192-187.072 41.472 0 79.872 12.8 111.232 34.56l62.208-60.736A431.808 431.808 0 0 0 512 252.8z m0 124.8c-70.72 0-128 55.808-128 124.672 0 22.784 6.272 44.544 17.728 63.36l175.232-170.88A129.984 129.984 0 0 0 512 377.472z" p-id="60296"></path></svg>