<svg width="37" height="37" viewBox="0 0 37 37" fill="none"
  xmlns="http://www.w3.org/2000/svg">
  <path d="M12.7131 26.5312H24.17C24.7518 26.5312 25.2253 27 25.2288 27.5797C25.2288 28.1594 24.7556 28.6279 24.17 28.6279H12.7131C12.1276 28.6279 11.6543 28.1594 11.6543 27.5797C11.6543 27 12.1276 26.5312 12.7131 26.5312Z" fill="#C1C1C1"/>
  <path d="M25.7988 6.18821H11.2808C10.8435 6.18821 10.4893 5.8339 10.4893 5.40468C10.4893 4.97174 10.8435 4.62109 11.2808 4.62109H25.7988C26.2361 4.62109 26.5903 4.97174 26.5903 5.40468C26.5903 5.83757 26.2361 6.18821 25.7988 6.18821Z" fill="#C1C1C1"/>
  <path d="M26.6107 10.2273H10.1159C9.67843 10.2273 9.32072 9.87663 9.32424 9.44369C9.32424 9.01076 9.67843 8.66016 10.1159 8.66016H26.6107C27.048 8.66016 27.4022 9.01076 27.4022 9.44369C27.4022 9.87663 27.048 10.2273 26.6107 10.2273Z" fill="#C1C1C1"/>
  <path d="M27.8769 14.2628H8.94965C8.51234 14.2628 8.1582 13.9087 8.1582 13.4793C8.1582 13.0464 8.51234 12.6957 8.94965 12.6957H27.8769C28.3143 12.6957 28.6684 13.0464 28.6684 13.4793C28.6684 13.9122 28.3143 14.2628 27.8769 14.2628Z" fill="#C1C1C1"/>
  <path fill-rule="evenodd" clip-rule="evenodd" d="M31.3419 2.72997L36.3113 18.4625C36.5208 18.8989 36.6473 19.3856 36.6473 19.9009V32.8674C36.6473 34.7424 35.1041 36.2702 33.2104 36.2702H3.43696C1.54324 36.2702 0 34.7424 0 32.8674V19.9009C0 19.3856 0.12654 18.9026 0.332456 18.4625L5.3056 2.72648C5.79337 1.17349 7.46686 0 9.19807 0H27.4495C29.1806 0 30.8539 1.17349 31.3419 2.72997ZM33.2104 33.6506C33.644 33.6506 34.0019 33.3 34.0019 32.867H33.9982V19.9004C33.9982 19.471 33.644 19.1169 33.2067 19.1169H24.1137C23.004 21.2457 20.7849 22.6233 18.3238 22.6233C15.8625 22.6233 13.6399 21.2494 12.5302 19.1169H3.43699C2.99968 19.1169 2.64553 19.4675 2.64553 19.9004V32.867C2.64553 33.2964 2.99968 33.6506 3.43699 33.6506H33.2104ZM9.19455 2.61719C8.63793 2.61719 7.97297 3.04659 7.82845 3.50449L3.72266 16.4999H13.4015C13.9653 16.4999 14.4675 16.854 14.6519 17.3836C15.194 18.9509 16.6686 20.0063 18.324 20.0063C19.9791 20.0063 21.4537 18.9509 21.9958 17.3836C22.1765 16.854 22.6824 16.4962 23.2463 16.4962H32.925L28.8194 3.50815C28.6856 3.08591 28.0749 2.61719 27.4497 2.61719H9.19455Z" fill="#C1C1C1"/>
</svg>
