<svg width="17" height="16" viewBox="0 0 17 16" fill="none" xmlns="http://www.w3.org/2000/svg">
<path fill-rule="evenodd" clip-rule="evenodd" d="M8.01157 2C10.6473 2 12.8075 4.03361 13.0042 6.61527C14.4831 7.23503 15.5224 8.69554 15.5224 10.3984C15.5224 12.5454 13.8704 14.3071 11.7665 14.4852L11.767 14.5H4.25615L4.25565 14.4851C2.1522 14.3065 0.500732 12.5451 0.500732 10.3984C0.500732 8.69554 1.54001 7.23503 3.01976 6.61484C3.21568 4.03361 5.37579 2 8.01157 2ZM8.01157 3.3C6.13623 3.3 4.57108 4.69686 4.3373 6.52272L4.31791 6.71309L4.25774 7.50585L3.5236 7.81353C2.4895 8.24695 1.80261 9.25926 1.80261 10.3984C1.80261 11.7976 2.83462 12.9699 4.19431 13.1699L4.36593 13.1898L4.49449 13.2H11.5266L11.6565 13.1898C13.0426 13.0725 14.1304 11.9514 14.2152 10.5721L14.2205 10.3984C14.2205 9.32263 13.6079 8.35988 12.6694 7.89144L12.5004 7.81399L11.7665 7.50642L11.7061 6.71391C11.5598 4.79495 9.95159 3.3 8.01157 3.3ZM10.44 7.7772C10.3224 7.66038 10.1812 7.60193 10.0164 7.60193L10.0164 7.60184L10.0169 7.6C9.85169 7.6 9.70978 7.66029 9.5913 7.77895L7.47859 9.89326L6.63229 9.04792C6.51381 8.92926 6.37216 8.87081 6.20682 8.87081C6.04174 8.87081 5.90114 8.92926 5.78336 9.04608C5.6669 9.1629 5.6081 9.30355 5.6081 9.46787C5.6081 9.63762 5.6662 9.77819 5.78099 9.89326L7.05268 11.1585C7.16773 11.2735 7.30938 11.332 7.4778 11.332C7.64367 11.332 7.78409 11.2735 7.89853 11.1585L10.4372 8.62438C10.5556 8.50572 10.6153 8.36322 10.6153 8.19899C10.6153 8.03467 10.5564 7.89402 10.44 7.7772Z" fill="#424348"/>
<mask id="mask0" mask-type="alpha" maskUnits="userSpaceOnUse" x="0" y="2" width="16" height="13">
<path fill-rule="evenodd" clip-rule="evenodd" d="M8.01157 2C10.6473 2 12.8075 4.03361 13.0042 6.61527C14.4831 7.23503 15.5224 8.69554 15.5224 10.3984C15.5224 12.5454 13.8704 14.3071 11.7665 14.4852L11.767 14.5H4.25615L4.25565 14.4851C2.1522 14.3065 0.500732 12.5451 0.500732 10.3984C0.500732 8.69554 1.54001 7.23503 3.01976 6.61484C3.21568 4.03361 5.37579 2 8.01157 2ZM8.01157 3.3C6.13623 3.3 4.57108 4.69686 4.3373 6.52272L4.31791 6.71309L4.25774 7.50585L3.5236 7.81353C2.4895 8.24695 1.80261 9.25926 1.80261 10.3984C1.80261 11.7976 2.83462 12.9699 4.19431 13.1699L4.36593 13.1898L4.49449 13.2H11.5266L11.6565 13.1898C13.0426 13.0725 14.1304 11.9514 14.2152 10.5721L14.2205 10.3984C14.2205 9.32263 13.6079 8.35988 12.6694 7.89144L12.5004 7.81399L11.7665 7.50642L11.7061 6.71391C11.5598 4.79495 9.95159 3.3 8.01157 3.3ZM10.44 7.7772C10.3224 7.66038 10.1812 7.60193 10.0164 7.60193L10.0164 7.60184L10.0169 7.6C9.85169 7.6 9.70978 7.66029 9.5913 7.77895L7.47859 9.89326L6.63229 9.04792C6.51381 8.92926 6.37216 8.87081 6.20682 8.87081C6.04174 8.87081 5.90114 8.92926 5.78336 9.04608C5.6669 9.1629 5.6081 9.30355 5.6081 9.46787C5.6081 9.63762 5.6662 9.77819 5.78099 9.89326L7.05268 11.1585C7.16773 11.2735 7.30938 11.332 7.4778 11.332C7.64367 11.332 7.78409 11.2735 7.89853 11.1585L10.4372 8.62438C10.5556 8.50572 10.6153 8.36322 10.6153 8.19899C10.6153 8.03467 10.5564 7.89402 10.44 7.7772Z" fill="white"/>
</mask>
<g mask="url(#mask0)">
<rect width="16.0231" height="16" fill="#CDCFD9"/>
</g>
</svg>
