<svg width="28" height="27" viewBox="0 0 28 27" fill="none"
  xmlns="http://www.w3.org/2000/svg">
  <path d="M13.5443 1.39407C13.8605 0.868642 14.6222 0.868643 14.9384 1.39407L18.884 7.95026C18.9976 8.13902 19.1829 8.27364 19.3975 8.32335L26.8521 10.0498C27.4495 10.1882 27.6849 10.9127 27.2829 11.3758L22.2669 17.1542C22.1224 17.3206 22.0517 17.5384 22.0707 17.7579L22.7323 25.3811C22.7853 25.992 22.1691 26.4398 21.6044 26.2006L14.5587 23.2156C14.3559 23.1297 14.1268 23.1297 13.924 23.2156L6.87833 26.2006C6.31367 26.4398 5.6974 25.992 5.75042 25.3811L6.41201 17.7579C6.43106 17.5384 6.36029 17.3206 6.21587 17.1542L1.19981 11.3758C0.797815 10.9127 1.03321 10.1882 1.63064 10.0498L9.08519 8.32335C9.29981 8.27364 9.48511 8.13902 9.5987 7.95026L13.5443 1.39407Z" fill="#7DC757"/>
</svg>
