<svg width="66" height="18" viewBox="0 0 66 18" fill="none"
  xmlns="http://www.w3.org/2000/svg">
  <rect x="0.857147" y="0.642822" width="64.4143" height="16.7143" rx="1.66478" fill="#FFC367"/>
  <path d="M25.8 6.55282H24.3279C24.2507 6.28282 24.1672 6.03211 24.0836 5.80711L23.46 5.90997C23.5565 6.10282 23.64 6.32139 23.7172 6.55282H22.3093V7.91568H22.8879V7.11211H25.215V7.88996H25.8V6.55282ZM23.4472 7.43997C23.37 7.77425 23.28 8.09568 23.1836 8.41068H22.1743V8.99568H22.9779C22.8429 9.33639 22.695 9.66425 22.5343 9.97282C22.9329 10.185 23.3057 10.3907 23.6593 10.5964C23.2415 10.8793 22.65 11.1043 21.8915 11.2714L22.1357 11.85C23.0872 11.6185 23.7943 11.3164 24.2443 10.9371C24.7907 11.2585 25.2472 11.5543 25.6072 11.8243L26.0186 11.3421C25.665 11.0978 25.2086 10.815 24.6429 10.5064C24.9515 10.095 25.1572 9.59354 25.26 8.99568H25.9865V8.41068H23.8007C23.8843 8.13425 23.9679 7.82568 24.0515 7.49139L23.4472 7.43997ZM24.675 8.99568C24.5722 9.48425 24.3793 9.88925 24.1029 10.2107C23.8393 10.0693 23.5565 9.92782 23.2543 9.77997C23.37 9.56139 23.4857 9.29782 23.6015 8.99568H24.675ZM20.85 11.7471C21.2615 11.7471 21.4672 11.535 21.4672 11.1171V9.34282C21.6407 9.26568 21.8207 9.17568 22.0007 9.08568V8.46854C21.8207 8.55854 21.6472 8.64854 21.4672 8.73211V7.63925H22.02V7.05425H21.4672V5.89068H20.85V7.05425H20.1493V7.63925H20.85V8.98282C20.5736 9.07925 20.2972 9.15639 20.0143 9.22068L20.1686 9.83139C20.3936 9.76068 20.6186 9.68354 20.85 9.59997V10.9628C20.85 11.1107 20.7793 11.1878 20.6379 11.1878C20.4836 11.1878 20.3293 11.175 20.1686 11.1557L20.3036 11.7471H20.85ZM31.515 6.68139L31.4315 8.44282H30.3965L30.5507 6.68139H31.515ZM29.805 8.44282H29.0529V9.03425H29.7536L29.5736 11.0335H28.9243L28.8343 10.5514C28.59 10.7057 28.3522 10.8343 28.1079 10.9371V9.61925H28.9436V9.05354H28.1079V8.39782H28.725V7.85139H27.195C27.3107 7.61996 27.4265 7.38211 27.5293 7.12497H28.8343V6.55282H27.735C27.7865 6.37925 27.8379 6.19925 27.8893 6.00639L27.2979 5.88425C27.1307 6.62997 26.8543 7.32425 26.4557 7.96711L26.9507 8.28211C27.0279 8.15354 27.0986 8.02497 27.1757 7.88996V8.39782H27.51V9.05354H26.6807V9.61925H27.51V10.8664C27.51 10.9821 27.4329 11.0721 27.2786 11.1364L27.5357 11.6635C28.0243 11.5221 28.455 11.3485 28.8407 11.1364V11.625H32.4407V11.0335H31.9136L32.1386 6.10282H29.2007V6.68139H29.9593L29.805 8.44282ZM30.1586 11.0335L30.345 9.03425H31.4057L31.3093 11.0335H30.1586ZM35.0379 11.445H37.7572V11.7857H38.3743V8.98925H35.9122C36.9986 8.44925 37.7507 7.76782 38.1686 6.95139V6.41139H35.7579C35.8672 6.25711 35.9636 6.09639 36.0536 5.92925L35.385 5.85211C34.9993 6.51425 34.2665 7.07354 33.18 7.53639L33.5915 8.06354C34.26 7.74211 34.8065 7.38211 35.2436 6.98354H37.4679C37.185 7.44639 36.7543 7.85782 36.1693 8.21139C35.9057 7.98639 35.5522 7.73568 35.1022 7.45925L34.575 7.78711C35.0122 8.03782 35.3722 8.27568 35.6422 8.49425C34.9222 8.82854 34.0286 9.09211 32.955 9.29782L33.2765 9.88925C33.6815 9.79282 34.0672 9.68997 34.4272 9.58068V11.7857H35.0379V11.445ZM37.7572 10.8535H35.0379V9.55497H37.7572V10.8535ZM39.4607 7.58139V8.16639H40.2707C40.065 8.81568 39.7436 9.39425 39.2936 9.90854L39.5636 10.59C39.885 10.1335 40.1422 9.62568 40.3479 9.07282V11.7793H40.9329V9.00854C41.0872 9.21425 41.2736 9.48425 41.4922 9.81854L41.8393 9.30425C41.5307 8.98925 41.2286 8.70639 40.9329 8.44925V8.16639H41.64V7.58139H40.9329V6.71354C41.2415 6.65568 41.5307 6.59139 41.8072 6.51425L41.595 5.93568C40.9779 6.12854 40.2707 6.25711 39.4736 6.32139L39.5957 6.89354C39.8529 6.86782 40.1036 6.84211 40.3479 6.80997V7.58139H39.4607ZM43.1315 11.7728C43.5429 11.7728 43.755 11.5607 43.755 11.1428V7.79354H43.1379V10.9885C43.1379 11.1428 43.0607 11.2264 42.9193 11.2264C42.7522 11.2264 42.5722 11.2135 42.3857 11.1878L42.5207 11.7728H43.1315ZM42.2507 8.69354C42.1029 9.40068 41.8586 10.0628 41.5179 10.68L42.045 11.0143C42.3793 10.3971 42.63 9.65782 42.81 8.80925L42.2507 8.69354ZM44.5907 8.63568L44.0443 8.81568C44.3079 9.47139 44.5457 10.2235 44.7643 11.0721L45.33 10.8214C45.1243 10.05 44.8736 9.31711 44.5907 8.63568ZM42.8036 7.30497H44.5007C44.4236 7.64568 44.34 7.94782 44.2372 8.21782L44.8286 8.39139C44.9443 7.96711 45.0407 7.53639 45.1115 7.11211V6.71997H43.0286C43.1057 6.47568 43.1765 6.21211 43.2279 5.93568L42.63 5.86497C42.4822 6.66211 42.1993 7.33068 41.775 7.88354L42.1543 8.36568C42.4115 8.04425 42.6236 7.69068 42.8036 7.30497Z" fill="#744E00"/>
</svg>
