<svg width="54" height="18" viewBox="0 0 54 18" fill="none"
  xmlns="http://www.w3.org/2000/svg">
  <rect y="0.642822" width="54" height="16.7143" rx="2.57143" fill="white"/>
  <path fill-rule="evenodd" clip-rule="evenodd" d="M12.8571 1.07129C12.8571 0.834654 13.049 0.642822 13.2856 0.642822H40.1031C40.3398 0.642822 40.5316 0.834655 40.5316 1.07129V16.7396C40.5316 16.9762 40.3398 17.1681 40.1031 17.1681H13.2856C13.049 17.1681 12.8571 16.9762 12.8571 16.7396V1.07129Z" fill="white"/>
  <mask id="mask0" style="mask-type:alpha" maskUnits="userSpaceOnUse" x="12" y="0" width="29" height="18">
    <path fill-rule="evenodd" clip-rule="evenodd" d="M12.8571 1.07129C12.8571 0.834654 13.049 0.642822 13.2856 0.642822H40.1031C40.3398 0.642822 40.5316 0.834655 40.5316 1.07129V16.7396C40.5316 16.9762 40.3398 17.1681 40.1031 17.1681H13.2856C13.049 17.1681 12.8571 16.9762 12.8571 16.7396V1.07129Z" fill="white"/>
  </mask>
  <g mask="url(#mask0)">
  </g>
  <g clip-path="url(#clip0)">
    <path d="M12.8571 0.642822H40.5316V17.3571H12.8571V0.642822Z" fill="white"/>
    <path d="M37.2864 16.2674C37.2864 14.0745 32.5444 12.2969 26.6948 12.2969C20.8452 12.2969 16.1032 14.0745 16.1032 16.2674H37.2864Z" fill="url(#paint0_linear)"/>
    <g opacity="0.778292">
      <rect opacity="0.769308" width="12.1841" height="8.79099" transform="matrix(0.951088 -0.308922 0.309112 0.951026 18.4215 5.36157)" fill="url(#paint1_linear)"/>
    </g>
    <path opacity="0.778292" d="M18.756 4.5752L30.7905 2.66978L32.1661 11.3523L20.4658 11.6263L18.756 4.5752Z" fill="white"/>
    <g opacity="0.778292">
      <rect opacity="0.769308" width="12.1844" height="8.79078" transform="matrix(0.987697 -0.156382 0.156487 0.98768 18.7562 4.5752)" fill="url(#paint2_linear)"/>
      <path d="M27.8902 6.53275C28.492 6.43746 28.9026 5.8725 28.8073 5.27088C28.712 4.66926 28.1468 4.25879 27.545 4.35408C26.9432 4.44937 26.5326 5.01432 26.6279 5.61594C26.7232 6.21757 27.2883 6.62803 27.8902 6.53275Z" fill="url(#paint3_linear)"/>
      <path opacity="0.479799" d="M20.1337 13.2731L23.6805 6.55011L27.473 9.44051L29.0897 6.99532L32.1682 11.3677L20.1337 13.2731Z" fill="url(#paint4_linear)"/>
    </g>
    <path d="M27.2653 13.3182C27.9114 13.3975 28.4498 13.3425 28.4679 13.1954C28.4859 13.0483 27.9768 12.8647 27.3308 12.7854C26.6847 12.7061 26.1463 12.7611 26.1282 12.9082C26.1102 13.0554 26.6193 13.2389 27.2653 13.3182Z" fill="#D9DEE5"/>
    <path fill-rule="evenodd" clip-rule="evenodd" d="M26.7495 11.2908C26.7495 11.2908 26.7991 12.2634 26.7991 12.2667C26.7991 12.2634 26.9128 12.892 26.9128 12.892H26.9976L27.0179 12.2667C27.0179 12.27 27.1028 11.7173 27.1028 11.7173L27.3638 12.1573L27.4841 13.0092H27.5749C27.5749 13.0092 27.6133 12.1223 27.6119 12.0997C27.6105 12.0772 27.4231 11.6172 27.3919 11.3782C27.3919 11.3782 27.269 11.4432 27.0812 11.4299C27.0064 11.4246 26.7495 11.2908 26.7495 11.2908Z" fill="#4B4B4B"/>
    <path fill-rule="evenodd" clip-rule="evenodd" d="M27.4819 13.0274L27.6683 13.0163L27.5751 12.9671L27.5261 12.8696H27.4735L27.4819 13.0274Z" fill="#4B4B4B"/>
    <path fill-rule="evenodd" clip-rule="evenodd" d="M27.4709 12.9962V13.057H27.8444V13.0435C27.8444 13.0296 27.836 13.0171 27.8235 13.0123L27.5912 12.968L27.5727 12.9962H27.4709Z" fill="#282242"/>
    <path fill-rule="evenodd" clip-rule="evenodd" d="M27.2526 10.3544C27.3478 10.2291 27.3601 10.1406 27.354 10.0887C27.348 10.0369 27.2899 10.0096 27.1797 10.007C27.1438 10.0357 27.1211 10.0479 27.1166 10.0568C27.1147 10.0607 27.1057 10.1314 27.1034 10.1354C27.1016 10.1388 27.0895 10.1649 27.0865 10.1659C27.067 10.1721 27.0709 10.301 27.0978 10.3352C27.0978 10.3352 27.1022 10.3398 27.1086 10.3422C27.1339 10.3512 27.1383 10.3636 27.1383 10.3799C27.1383 10.4064 27.1383 10.4325 27.1383 10.4325L27.2526 10.4326L27.2526 10.3544Z" fill="#FFC7B3"/>
    <path fill-rule="evenodd" clip-rule="evenodd" d="M27.7772 11.5501C27.7772 11.5501 27.7916 11.5613 27.7819 11.5733C27.7723 11.5853 27.762 11.5733 27.762 11.5841C27.762 11.5963 27.764 11.6089 27.7472 11.6113C27.7426 11.6119 27.7317 11.6089 27.725 11.6089C27.7177 11.6089 27.7105 11.6142 27.7028 11.6144C27.696 11.6146 27.6886 11.6096 27.6824 11.6089C27.6763 11.6081 27.6682 11.6156 27.6632 11.6144C27.6527 11.612 27.6495 11.6058 27.6468 11.5964C27.644 11.5868 27.6257 11.5695 27.6527 11.5416C27.6798 11.5136 27.6737 11.5054 27.6632 11.49C27.6527 11.4746 27.6856 11.4495 27.6856 11.4495C27.6856 11.4495 27.7159 11.4538 27.7159 11.4728C27.7159 11.4918 27.7557 11.5387 27.7557 11.5387L27.7772 11.5501Z" fill="url(#paint5_linear)"/>
    <path fill-rule="evenodd" clip-rule="evenodd" d="M27.0228 12.9532H26.8884L26.8678 12.9192V12.8691H27.0353V12.9192L27.0228 12.9532Z" fill="#25203C"/>
    <path fill-rule="evenodd" clip-rule="evenodd" d="M26.5932 9.67668L26.6501 9.64397L26.6502 9.53538C26.6502 9.52627 26.6482 9.51735 26.6442 9.5092C26.6255 9.47183 26.5696 9.36262 26.5554 9.36658C26.5382 9.37136 26.5507 9.38517 26.5609 9.40718C26.5711 9.42919 26.5956 9.48692 26.5897 9.50149C26.5897 9.50149 26.5831 9.49823 26.5717 9.49825C26.5662 9.49826 26.5632 9.50534 26.5578 9.50694C26.5523 9.50855 26.543 9.50537 26.5372 9.51012C26.5321 9.51434 26.535 9.521 26.529 9.52711C26.5239 9.53223 26.5151 9.52931 26.5123 9.53406C26.4991 9.5559 26.5163 9.5766 26.5264 9.58071C26.5366 9.58482 26.5932 9.67668 26.5932 9.67668Z" fill="url(#paint6_linear)"/>
    <path fill-rule="evenodd" clip-rule="evenodd" d="M27.4405 10.9553C27.4691 10.9975 27.6146 11.2234 27.656 11.513H27.7437C27.7437 11.513 27.6357 10.5373 27.3739 10.4643C27.3739 10.4643 27.1376 10.3875 27.0712 10.4055C27.0712 10.4055 26.923 10.1958 26.8683 10.1368C26.8136 10.0778 26.6555 9.68387 26.6555 9.62769L26.5759 9.67593C26.5759 9.67593 26.5965 10.0643 26.7007 10.3124C26.7877 10.5199 26.8577 10.6228 26.8783 10.651C26.8446 10.7438 26.8192 10.8222 26.7638 10.9993C26.716 11.1523 26.6521 11.425 26.6521 11.4537C26.6521 11.4825 27.0358 11.6602 27.0358 11.6602L27.0661 11.6014L27.1239 11.683L27.514 11.6415C27.514 11.6415 27.4737 11.234 27.4522 11.0929C27.4465 11.0556 27.4428 11.0068 27.4405 10.9553Z" fill="url(#paint7_radial)"/>
    <path fill-rule="evenodd" clip-rule="evenodd" d="M27.2212 10.3909C27.2597 10.4034 27.3248 10.3566 27.3394 10.3415C27.3519 10.3286 27.4385 10.216 27.414 10.1168C27.4046 10.0784 27.3541 10.0386 27.3023 10.0104C27.1974 9.95321 27.1014 9.96059 27.089 10.0104C27.0766 10.0601 27.1244 10.0952 27.1232 10.1116C27.1226 10.1202 27.0972 10.171 27.112 10.1868C27.119 10.1944 27.1536 10.1387 27.1536 10.1808C27.1536 10.2479 27.1287 10.2463 27.112 10.2675C27.1059 10.2752 27.1225 10.3391 27.1266 10.3545C27.1266 10.3638 27.1923 10.3815 27.2212 10.3909Z" fill="url(#paint8_linear)"/>
  </g>
  <path d="M17.6551 6.31345H15.691C15.5734 5.92733 15.4559 5.59157 15.33 5.28939L14.7173 5.39012C14.8516 5.67551 14.9775 5.97769 15.0866 6.31345H13.156V8.00062H13.7268V6.85905H17.076V7.96705H17.6551V6.31345ZM14.7173 7.38787C14.5998 7.85792 14.4738 8.3028 14.3312 8.73928H12.9546V9.31846H14.1297C13.945 9.78852 13.7436 10.2334 13.5169 10.6531C14.0709 10.9469 14.5914 11.2323 15.0782 11.5093C14.5074 11.929 13.6764 12.2647 12.5684 12.5165L12.8119 13.0873C14.1213 12.7767 15.0614 12.3654 15.649 11.845C16.4044 12.2899 17.034 12.6928 17.5376 13.0621L17.9489 12.5837C17.4621 12.2479 16.8325 11.8534 16.0435 11.4169C16.4884 10.8629 16.7822 10.1579 16.9165 9.31846H17.9237V8.73928H14.9439C15.0614 8.35316 15.1873 7.91668 15.3048 7.43823L14.7173 7.38787ZM16.3373 9.31846C16.1946 10.0571 15.9176 10.6531 15.5063 11.1231C15.1118 10.9133 14.6837 10.6951 14.2304 10.46C14.4067 10.1411 14.5746 9.75494 14.7425 9.31846H16.3373ZM11.2254 12.9782C11.7039 12.9782 11.9473 12.7348 11.9473 12.2479V9.8221C12.2075 9.70458 12.4677 9.58707 12.7279 9.46116V8.8484C12.4677 8.98271 12.2075 9.10862 11.9473 9.22613V7.54735H12.7363V6.96817H11.9473V5.38173H11.3261V6.96817H10.3441V7.54735H11.3261V9.46955C10.9568 9.60385 10.5707 9.72137 10.1762 9.8137L10.3273 10.4181C10.6546 10.3173 10.9904 10.1998 11.3261 10.0739V12.0968C11.3261 12.3151 11.217 12.4242 11.0156 12.4242C10.8141 12.4242 10.6043 12.4074 10.386 12.3906L10.5119 12.9782H11.2254ZM25.2684 6.29666L25.1425 8.78965H23.598L23.8163 6.29666H25.2684ZM23.0104 8.78965H21.9444V9.37722H22.9601L22.7083 12.2144H21.6926V12.8019H26.3428V12.2144H25.5874L25.8895 5.72588H22.1627V6.29666H23.2287L23.0104 8.78965ZM23.2874 12.2144L23.5476 9.37722H25.1173L24.983 12.2144H23.2874ZM19.7452 5.37333C19.5102 6.3806 19.1325 7.29553 18.612 8.11814L19.1073 8.42871C19.4011 7.96705 19.6613 7.44662 19.8879 6.87584H21.6338V6.31345H20.0894C20.1733 6.04484 20.2572 5.77624 20.3328 5.49085L19.7452 5.37333ZM19.4934 8.00062V8.54622H20.0222V9.57867H18.8722V10.1327H20.0222V12.0381C20.0222 12.1556 19.9383 12.2479 19.7704 12.3151L20.0306 12.8355C20.6853 12.6424 21.2729 12.399 21.7765 12.0968L21.6674 11.5596C21.3149 11.7863 20.9623 11.9709 20.6182 12.1136V10.1327H21.7765V9.57867H20.6182V8.54622H21.4911V8.00062H19.4934ZM29.6584 12.5333H33.4105V13.0286H34.0232V9.48634H30.523C32.101 8.75607 33.1838 7.81596 33.7882 6.66599V6.12878H30.5146C30.6825 5.90215 30.8335 5.66712 30.9678 5.4153L30.3047 5.33976C29.8011 6.22951 28.8358 6.98496 27.4004 7.59771L27.8033 8.11814C28.6931 7.69844 29.415 7.22838 29.9858 6.69957H33.0915C32.697 7.38787 32.0758 7.98383 31.2197 8.49586C30.8587 8.18529 30.3551 7.83274 29.7172 7.43823L29.1967 7.76559C29.8347 8.12653 30.3383 8.46229 30.7076 8.77286C29.7423 9.25971 28.5336 9.64582 27.0815 9.948L27.4004 10.5272C27.988 10.3845 28.5336 10.2334 29.054 10.0655V13.0286H29.6584V12.5333ZM33.4105 11.9458H29.6584V10.0487H33.4105V11.9458ZM35.5593 7.65647V8.23565H36.7177C36.4491 9.19255 35.9958 10.0403 35.3579 10.7874L35.6181 11.4589C36.1049 10.7874 36.4994 10.0403 36.7848 9.21774V13.0286H37.364V9.23452C37.6158 9.52831 37.9264 9.92282 38.2789 10.4265L38.6147 9.92282C38.195 9.46955 37.7837 9.06665 37.364 8.69731V8.23565H38.3964V7.65647H37.364V6.36381C37.7921 6.27987 38.195 6.17915 38.5643 6.07842L38.3545 5.50764C37.5487 5.75945 36.6337 5.92733 35.5929 6.01966L35.7104 6.59045C36.0797 6.55687 36.4323 6.50651 36.7848 6.45614V7.65647H35.5593ZM40.327 13.0118C40.8055 13.0118 41.0489 12.76 41.0489 12.2563V7.81596H40.4278V12.1052C40.4278 12.3487 40.3186 12.4746 40.1172 12.4746C39.8906 12.4746 39.6471 12.4578 39.3953 12.4326L39.5212 13.0118H40.327ZM39.2694 9.02468C39.0596 9.99837 38.7322 10.8965 38.2789 11.7023L38.7993 12.0297C39.2442 11.2155 39.5884 10.2502 39.8318 9.1338L39.2694 9.02468ZM42.1401 8.96592L41.5945 9.14219C41.9471 10.0068 42.2744 10.9972 42.5682 12.1136L43.1222 11.8702C42.8452 10.8378 42.5178 9.87246 42.1401 8.96592ZM39.8402 7.10247H42.2408C42.1401 7.58932 42.0142 8.0258 41.8631 8.42032L42.4507 8.59659C42.6186 8.04259 42.7445 7.4802 42.8452 6.90942V6.5149H40.0668C40.1843 6.16236 40.2851 5.79303 40.3606 5.40691L39.7646 5.33136C39.5632 6.40578 39.1687 7.31232 38.5979 8.05098L38.9672 8.52944C39.3114 8.10974 39.6052 7.63129 39.8402 7.10247Z" fill="black"/>
  <defs>
    <linearGradient id="paint0_linear" x1="40.2742" y1="15.0526" x2="40.2742" y2="10.3366" gradientUnits="userSpaceOnUse">
      <stop stop-color="white" stop-opacity="0.01"/>
      <stop offset="1" stop-color="#D9DEE5"/>
    </linearGradient>
    <linearGradient id="paint1_linear" x1="7.98538" y1="10.8624" x2="12.3891" y2="-0.267238" gradientUnits="userSpaceOnUse">
      <stop stop-color="white" stop-opacity="0.01"/>
      <stop offset="1" stop-color="#CBCFD6"/>
    </linearGradient>
    <linearGradient id="paint2_linear" x1="9.34695" y1="10.2851" x2="11.649" y2="2.10469" gradientUnits="userSpaceOnUse">
      <stop stop-color="white" stop-opacity="0.01"/>
      <stop offset="1" stop-color="#CBCFD6"/>
    </linearGradient>
    <linearGradient id="paint3_linear" x1="29.072" y1="8.15315" x2="29.6695" y2="4.59796" gradientUnits="userSpaceOnUse">
      <stop stop-color="white" stop-opacity="0.01"/>
      <stop offset="1" stop-color="#B1B7BF"/>
    </linearGradient>
    <linearGradient id="paint4_linear" x1="28.1852" y1="10.4777" x2="27.9634" y2="7.52277" gradientUnits="userSpaceOnUse">
      <stop stop-color="#D8DFE6" stop-opacity="0.19"/>
      <stop offset="1" stop-color="#C2C7CD"/>
    </linearGradient>
    <linearGradient id="paint5_linear" x1="27.6449" y1="11.6128" x2="27.6168" y2="11.5019" gradientUnits="userSpaceOnUse">
      <stop stop-color="#F6A98D"/>
      <stop offset="0.264496" stop-color="#F8B9A2"/>
      <stop offset="1" stop-color="#FFC7B3"/>
    </linearGradient>
    <linearGradient id="paint6_linear" x1="26.5971" y1="9.6814" x2="26.7386" y2="9.57125" gradientUnits="userSpaceOnUse">
      <stop stop-color="#DE957A"/>
      <stop offset="0.239023" stop-color="#F8B9A2"/>
      <stop offset="1" stop-color="#FFC7B3"/>
    </linearGradient>
    <radialGradient id="paint7_radial" cx="0" cy="0" r="1" gradientUnits="userSpaceOnUse" gradientTransform="translate(27.1598 10.7635) rotate(77.1594) scale(0.870939 0.546119)">
      <stop stop-color="#5892FF"/>
      <stop offset="0.696807" stop-color="#4573FF"/>
      <stop offset="1" stop-color="#4A67DD"/>
    </radialGradient>
    <linearGradient id="paint8_linear" x1="27.3256" y1="9.91216" x2="27.5759" y2="10.2216" gradientUnits="userSpaceOnUse">
      <stop stop-color="#302D4A"/>
      <stop offset="0.54893" stop-color="#312D42"/>
      <stop offset="1" stop-color="#1F1E3D"/>
    </linearGradient>
    <clipPath id="clip0">
      <rect width="27.6745" height="16.7143" fill="white" transform="translate(12.8571 0.642822)"/>
    </clipPath>
  </defs>
</svg>
