<svg width="52" height="18" viewBox="0 0 52 18" fill="none"
  xmlns="http://www.w3.org/2000/svg">
  <path d="M51.7143 8.99996C51.7143 4.38444 47.9727 0.642822 43.3572 0.642822H0.285725V17.3571H43.3572C47.9727 17.3571 51.7143 13.6155 51.7143 8.99996Z" fill="#FFC367"/>
  <path d="M19.0742 6.52711H17.6149C17.5378 6.25711 17.4606 6.01282 17.3835 5.79425L16.6956 5.90997C16.7856 6.09639 16.8692 6.30211 16.9399 6.52711H15.5578V7.91568H16.1942V7.13782H18.4314V7.88996H19.0742V6.52711ZM16.6764 7.43354C16.5992 7.75497 16.5156 8.07639 16.4192 8.38497H15.4356V9.02139H16.1942C16.0656 9.35568 15.9178 9.67711 15.7635 9.98568C16.1492 10.1914 16.5156 10.3971 16.8564 10.59C16.4385 10.8535 15.8728 11.0657 15.1528 11.2264L15.4228 11.8628C16.3485 11.6378 17.0428 11.3421 17.5056 10.9693C18.0328 11.2907 18.4764 11.58 18.8299 11.8371L19.2864 11.31C18.9392 11.0657 18.4956 10.7957 17.9428 10.5C18.2385 10.095 18.4378 9.59997 18.5406 9.02139H19.2478V8.38497H17.1006C17.1778 8.11497 17.2614 7.81925 17.3385 7.49782L16.6764 7.43354ZM17.8978 9.02139C17.7949 9.48425 17.6085 9.86997 17.3449 10.1785C17.1006 10.0435 16.8306 9.90854 16.5478 9.76711C16.6635 9.55497 16.7728 9.30425 16.8821 9.02139H17.8978ZM14.1049 11.7535C14.5356 11.7535 14.7542 11.535 14.7542 11.0978V9.34925C14.9214 9.27211 15.0949 9.18854 15.2621 9.10497V8.42354C15.0949 8.51354 14.9214 8.60354 14.7542 8.68068V7.67139H15.2878V7.02211H14.7542V5.88425H14.0728V7.02211H13.3914V7.67139H14.0728V8.95711C13.8028 9.04711 13.5328 9.11782 13.2564 9.18211L13.4299 9.85711C13.6421 9.78639 13.8542 9.70925 14.0728 9.63211V10.9243C14.0728 11.0657 14.0021 11.1428 13.8735 11.1428C13.7256 11.1428 13.5714 11.13 13.4106 11.1043L13.5585 11.7535H14.1049ZM24.7314 6.70711L24.6542 8.41068H23.6835L23.8378 6.70711H24.7314ZM23.0278 8.41068H22.3078V9.05997H22.9699L22.8028 10.995H22.1792L22.0828 10.5128C21.8578 10.6607 21.6264 10.7828 21.3949 10.8857V9.64497H22.2049V9.02782H21.3949V8.42354H21.9864V7.82568H20.5078C20.6106 7.61996 20.7135 7.39497 20.8099 7.15068H22.0956V6.52711H21.0285C21.0799 6.35997 21.1249 6.19282 21.1699 6.01282L20.5271 5.87782C20.3664 6.61068 20.0899 7.30497 19.6914 7.95425L20.2378 8.29497C20.3021 8.19211 20.3664 8.08282 20.4306 7.96711V8.42354H20.7392V9.02782H19.9292V9.64497H20.7392V10.8085C20.7392 10.9371 20.6556 11.0335 20.4949 11.1043L20.7714 11.6764C21.2599 11.535 21.6971 11.3678 22.0828 11.1621V11.6443H25.7085V10.995H25.2006L25.4192 6.07711H22.4428V6.70711H23.1821L23.0278 8.41068ZM23.4521 10.995L23.6256 9.05997H24.6221L24.5321 10.995H23.4521ZM28.3249 11.4643H30.9799V11.7985H31.6614V8.96354H29.2764C30.3178 8.42997 31.0442 7.76782 31.4428 6.97068V6.37925H29.0771C29.1799 6.23139 29.2699 6.08354 29.3471 5.92925L28.6078 5.83925C28.2285 6.49496 27.4956 7.05425 26.4156 7.50425L26.8656 8.08925C27.5342 7.76782 28.0806 7.40782 28.5178 7.00925H30.6778C30.4078 7.44639 29.9899 7.83854 29.4306 8.17925C29.1671 7.96068 28.8199 7.71639 28.3956 7.44639L27.8106 7.80639C28.2285 8.04425 28.5756 8.26925 28.8456 8.48782C28.1385 8.80925 27.2578 9.06639 26.1971 9.25925L26.5442 9.90211C26.9299 9.81211 27.3028 9.70925 27.6499 9.60639V11.7985H28.3249V11.4643ZM30.9799 10.815H28.3249V9.58711H30.9799V10.815ZM32.7092 7.55568V8.19211H33.4871C33.2814 8.80925 32.9664 9.36211 32.5356 9.85068L32.8314 10.6028C33.1271 10.1657 33.3778 9.68997 33.5771 9.16282V11.7857H34.2135V9.07925C34.3614 9.27854 34.5285 9.52925 34.7214 9.83139L35.1006 9.26568C34.7985 8.96354 34.5028 8.68711 34.2135 8.44282V8.19211H34.8885V7.55568H34.2135V6.73282C34.5092 6.68139 34.7985 6.61711 35.0749 6.53997L34.8371 5.90997C34.2135 6.10282 33.5064 6.22496 32.7156 6.28925L32.8506 6.91925C33.0949 6.89354 33.3392 6.86782 33.5771 6.83568V7.55568H32.7092ZM36.3864 11.7793C36.8235 11.7793 37.0421 11.5607 37.0421 11.1235V7.79996H36.3606V10.9628C36.3606 11.1043 36.2899 11.1814 36.1549 11.1814C35.9878 11.1814 35.8142 11.1621 35.6278 11.1364L35.7756 11.7793H36.3864ZM35.4735 8.69354C35.3321 9.38782 35.0942 10.0371 34.7599 10.6543L35.3385 11.0207C35.6599 10.4035 35.9106 9.67068 36.0906 8.82211L35.4735 8.69354ZM37.8778 8.62925L37.2799 8.82854C37.5371 9.47782 37.7685 10.2235 37.9871 11.0721L38.6042 10.7957C38.3985 10.0307 38.1606 9.31068 37.8778 8.62925ZM36.0778 7.33711H37.7171C37.6464 7.66497 37.5628 7.95425 37.4664 8.20497L38.1156 8.39782C38.2314 7.97354 38.3214 7.54925 38.3856 7.12497V6.69425H36.3221C36.3992 6.44997 36.4635 6.19925 36.5149 5.94211L35.8528 5.85854C35.7114 6.64282 35.4285 7.31139 35.0171 7.85139L35.4349 8.38497C35.6921 8.06997 35.9042 7.72282 36.0778 7.33711Z" fill="#744E00"/>
</svg>
