<svg width="25" height="27" viewBox="0 0 25 27" fill="none"
  xmlns="http://www.w3.org/2000/svg">
  <g clip-path="url(#clip0)">
    <path d="M10.1439 1.17154C10.4602 0.646108 11.2219 0.646109 11.5381 1.17154L15.4837 7.72772C15.5973 7.91648 15.7826 8.05111 15.9972 8.10081L23.4518 9.8273C24.0492 9.96567 24.2846 10.6901 23.8826 11.1532L18.8665 16.9317C18.7221 17.098 18.6513 17.3159 18.6704 17.5353L19.332 25.1586C19.385 25.7695 18.7687 26.2172 18.2041 25.978L11.1584 22.9931C10.9555 22.9072 10.7265 22.9072 10.5237 22.9931L3.478 25.978C2.91334 26.2172 2.29707 25.7695 2.35009 25.1586L3.01168 17.5353C3.03073 17.3159 2.95996 17.098 2.81554 16.9317L-2.20052 11.1532C-2.60252 10.6901 -2.36712 9.96567 -1.76969 9.8273L5.68486 8.10081C5.89948 8.05111 6.08478 7.91648 6.19837 7.72772L10.1439 1.17154Z" fill="#17C8C8"/>
  </g>
  <path d="M9 0V26" stroke="#17C8C8" stroke-width="0.827585"/>
  <path d="M0 11.2C0 11.0895 0.0895429 11 0.2 11H3.99999V15H0.2C0.0895432 15 0 14.9105 0 14.8V11.2Z" fill="#17C8C8"/>
  <path d="M4 16.5172V9.48284C4 9.30466 4.21543 9.21543 4.34142 9.34142L7.85858 12.8586C7.93668 12.9367 7.93668 13.0633 7.85858 13.1414L4.34142 16.6586C4.21543 16.7846 4 16.6953 4 16.5172Z" fill="#17C8C8"/>
  <defs>
    <clipPath id="clip0">
      <rect width="15" height="27" fill="white" transform="translate(10)"/>
    </clipPath>
  </defs>
</svg>
