<svg width="72" height="72" viewBox="0 0 72 72" fill="none" xmlns="http://www.w3.org/2000/svg">
<path d="M53.5 34.4998V20.9998L40 5.99982H8.5C6.84315 5.99982 5.5 7.34296 5.5 8.99982V62.9998C5.5 64.6567 6.84315 65.9998 8.5 65.9998H26.5" stroke="#C1C1C1" stroke-width="6" stroke-linecap="round" stroke-linejoin="round"/>
<path d="M38.4998 5.99982V20.9998H53.4998" stroke="#C1C1C1" stroke-width="6" stroke-linecap="round" stroke-linejoin="round"/>
<path d="M41.1127 47.8862V49.8169H50.571V47.8862H46.8462C46.6121 46.8332 46.3976 45.8776 46.1636 45.0195L44.1159 45.3705C44.3889 46.1506 44.623 46.9892 44.818 47.8862H41.1127ZM40.6836 60.2698V62.2589H50.961V60.2698H47.9577C48.6598 57.6176 49.2644 54.6143 49.7519 51.26L47.8407 50.753C47.2947 54.4973 46.6706 57.6761 45.9686 60.2698H40.6836ZM43.6674 50.9285L41.8342 51.533C42.3803 54.1853 42.8288 56.935 43.1994 59.8017L45.0325 59.3142C44.6425 56.1549 44.1744 53.3662 43.6674 50.9285ZM33.4485 51.6696V53.5222H35.9837C35.3597 55.2579 34.3651 56.818 33 58.2221L33.8776 60.4258C34.7941 59.1777 35.5547 57.7931 36.1593 56.3109V63H38.1094V55.8234C38.6165 56.5645 39.2015 57.52 39.8841 58.6706L41.0347 56.9155C40.0401 55.8624 39.065 54.9068 38.1094 54.0488V53.5222H40.5666V51.6696H38.1094V45H36.1593V51.6696H33.4485ZM39.338 46.3261C39.221 47.8667 38.9675 49.2319 38.5385 50.4019L39.9621 50.87C40.4301 49.6024 40.7226 48.1593 40.8397 46.5211L39.338 46.3261ZM34.8527 46.5796L33.351 47.0867C33.7216 48.3348 34.0336 49.6414 34.2871 51.0065L35.6522 50.636C35.4182 49.1148 35.1452 47.7497 34.8527 46.5796Z" fill="#C1C1C1"/>
<path d="M52.9697 53.0347V55.0238H60.9458V60.2503C60.9458 60.7183 60.6923 60.9523 60.2048 60.9523C59.0542 60.9523 58.0011 60.9328 57.026 60.8938L57.572 62.8635H61.0433C62.3304 62.8635 62.9935 62.2004 62.9935 60.8938V55.0238H70.1701V53.0347H62.9935V51.6696C64.8657 50.3824 66.5233 48.9978 67.9859 47.5547V45.6436H55.0173V47.5547H65.2752C63.8711 48.7638 62.428 49.7974 60.9458 50.6555V53.0347H52.9697Z" fill="#C1C1C1"/>
</svg>
