<svg width="72" height="72" viewBox="0 0 72 72" fill="none" xmlns="http://www.w3.org/2000/svg">
<path d="M53.5 34.4998V20.9998L40 5.99982H8.5C6.84315 5.99982 5.5 7.34296 5.5 8.99982V62.9998C5.5 64.6567 6.84315 65.9998 8.5 65.9998H26.5" stroke="#C1C1C1" stroke-width="6" stroke-linecap="round" stroke-linejoin="round"/>
<path d="M38.4998 5.99982V20.9998H53.4998" stroke="#C1C1C1" stroke-width="6" stroke-linecap="round" stroke-linejoin="round"/>
<path d="M20.26 47.148V60H29.296V58.2H22.348V47.148H20.26Z" fill="#C1C1C1"/>
<path d="M35.0524 50.442C33.6304 50.442 32.4964 50.892 31.6504 51.828C30.7864 52.746 30.3724 53.916 30.3724 55.356C30.3724 56.778 30.7864 57.948 31.6324 58.848C32.4964 59.784 33.6304 60.252 35.0524 60.252C36.4564 60.252 37.6084 59.784 38.4724 58.848C39.3004 57.948 39.7324 56.778 39.7324 55.356C39.7324 53.916 39.3004 52.746 38.4544 51.828C37.5904 50.892 36.4564 50.442 35.0524 50.442ZM35.0524 52.116C35.8984 52.116 36.5644 52.44 37.0324 53.124C37.4284 53.7 37.6444 54.456 37.6444 55.356C37.6444 56.238 37.4284 56.976 37.0324 57.57C36.5644 58.236 35.8984 58.578 35.0524 58.578C34.1884 58.578 33.5404 58.236 33.0724 57.57C32.6764 56.994 32.4784 56.256 32.4784 55.356C32.4784 54.456 32.6764 53.7 33.0724 53.124C33.5404 52.44 34.1884 52.116 35.0524 52.116Z" fill="#C1C1C1"/>
<path d="M44.4413 47.688L42.3893 48.534V50.694H40.7153V52.386H42.3893V57.642C42.3893 58.398 42.5693 58.956 42.9293 59.352C43.3073 59.784 43.9013 60 44.7113 60H46.2773V58.308H45.0533C44.8373 58.308 44.6933 58.254 44.5853 58.146C44.4773 58.02 44.4413 57.858 44.4413 57.642V52.386H46.5113V50.694H44.4413V47.688Z" fill="#C1C1C1"/>
<path d="M50.9628 47.688L48.9108 48.534V50.694H47.2368V52.386H48.9108V57.642C48.9108 58.398 49.0908 58.956 49.4508 59.352C49.8288 59.784 50.4228 60 51.2328 60H52.7988V58.308H51.5748C51.3588 58.308 51.2148 58.254 51.1068 58.146C50.9988 58.02 50.9628 57.858 50.9628 57.642V52.386H53.0328V50.694H50.9628V47.688Z" fill="#C1C1C1"/>
<path d="M55.9543 46.896C55.5583 46.896 55.2343 47.022 54.9643 47.274C54.6943 47.526 54.5683 47.85 54.5683 48.246C54.5683 48.642 54.6943 48.966 54.9643 49.236C55.2343 49.488 55.5583 49.614 55.9543 49.614C56.3503 49.614 56.6743 49.488 56.9443 49.236C57.2143 48.984 57.3583 48.642 57.3583 48.246C57.3583 47.85 57.2143 47.526 56.9623 47.274C56.6923 47.022 56.3503 46.896 55.9543 46.896ZM54.9283 50.694V60H56.9803V50.694H54.9283Z" fill="#C1C1C1"/>
<path d="M63.4853 50.442C62.0993 50.442 61.0013 50.91 60.2093 51.864C59.3813 52.8 58.9853 53.952 58.9853 55.338C58.9853 56.886 59.4173 58.092 60.2813 58.974C61.0913 59.82 62.1893 60.252 63.5753 60.252C64.8173 60.252 65.8433 59.892 66.6713 59.19C67.3193 58.614 67.7513 57.876 67.9673 57.012H65.9153C65.6633 57.534 65.3933 57.912 65.0873 58.146C64.6913 58.434 64.1873 58.578 63.5573 58.578C62.8193 58.578 62.2433 58.344 61.8473 57.894C61.4513 57.444 61.2173 56.778 61.1453 55.914H68.1113C68.1113 54.24 67.7333 52.926 66.9953 51.99C66.1853 50.946 65.0153 50.442 63.4853 50.442ZM63.5393 52.116C64.9793 52.116 65.7893 52.854 65.9693 54.366H61.1813C61.3073 53.628 61.5593 53.07 61.9373 52.692C62.3333 52.296 62.8553 52.116 63.5393 52.116Z" fill="#C1C1C1"/>
</svg>
