<?xml version="1.0" standalone="no"?><!DOCTYPE svg PUBLIC "-//W3C//DTD SVG 1.1//EN" "http://www.w3.org/Graphics/SVG/1.1/DTD/svg11.dtd">
<svg t="1622195590366" class="icon" viewBox="0 0 1024 1024" version="1.1"
  xmlns="http://www.w3.org/2000/svg" p-id="2365"
  xmlns:xlink="http://www.w3.org/1999/xlink" width="64" height="64">
  <defs>
    <style type="text/css"></style>
  </defs>
  <path d="M650.794667 597.418667a32 32 0 0 1 0-64h117.333333a106.752 106.752 0 1 0-21.76-211.285334l-8.704 2.176-3.242667 0.554667-5.589333 0.128-2.346667-0.256-3.754666-0.725333-4.309334-1.493334-1.664-0.725333-1.792-0.981333a29.312 29.312 0 0 1-6.186666-4.522667l-0.426667-0.469333a29.354667 29.354667 0 0 1-4.693333-5.76l-2.005334-3.84-2.133333-6.272a192.128 192.128 0 0 0-372.906667-9.130667l-2.944 11.946667-1.493333 3.754666-2.133333 3.84-1.962667 2.688-2.773333 2.986667-3.029334 2.56-2.005333 1.365333-3.328 1.834667-4.181333 1.621333-1.749334 0.554667-2.133333 0.426667a24.234667 24.234667 0 0 1-3.370667 0.426666h-5.077333l-2.858667-0.426666-2.858666-0.64A106.88 106.88 0 0 0 149.461333 426.666667a106.752 106.752 0 0 0 99.754667 106.538666l7.04 0.213334H373.333333a32 32 0 0 1 4.309334 63.701333l-4.309334 0.298667H256.256a170.752 170.752 0 1 1 14.08-340.906667 256.170667 256.170667 0 0 1 483.328 0.085333l2.773333-0.256 11.648-0.426666a170.752 170.752 0 1 1 0 341.504h-117.333333z m-164.778667 289.834666l-4.010667-3.541333-158.848-158.848a42.666667 42.666667 0 0 1 56.32-63.872l4.010667 3.541333 86.058667 86.016v-366.506666a42.666667 42.666667 0 0 1 37.632-42.368L512.170667 341.333333a42.666667 42.666667 0 0 1 42.368 37.674667l0.298666 4.992 0.042667 366.506667 85.973333-86.016a42.666667 42.666667 0 0 1 56.32-3.541334l4.010667 3.541334a42.666667 42.666667 0 0 1 3.541333 56.32l-3.541333 4.010666-158.848 158.848a42.666667 42.666667 0 0 1-56.32 3.541334z" p-id="2366" fill="currentColor"></path>
</svg>