<?xml version="1.0" standalone="no"?><!DOCTYPE svg PUBLIC "-//W3C//DTD SVG 1.1//EN" "http://www.w3.org/Graphics/SVG/1.1/DTD/svg11.dtd">
<svg t="1608281369417" class="icon" viewBox="0 0 1024 1024" version="1.1"
  xmlns="http://www.w3.org/2000/svg" p-id="16685"
  xmlns:xlink="http://www.w3.org/1999/xlink" width="200" height="200">
  <defs>
    <style type="text/css"></style>
  </defs>
  <path d="M918.7 217v51.1c0 2.2-1.8 4-4 4H202.1c-2.2 0-4-1.8-4-4V217c0-2.2 1.8-4 4-4h712.6c2.2 0 4 1.8 4 4z" fill="currentColor" p-id="16686"></path>
  <path d="M789.7 242.5H842c1.9 0 3.4 1.5 3.4 3.4v360.6c0 1.9-1.5 3.4-3.4 3.4h-52.3c-1.9 0-3.4-1.5-3.4-3.4V245.9c0-1.8 1.5-3.4 3.4-3.4z" fill="currentColor" p-id="16687"></path>
  <path d="M815.8 685.2m-121.8 0a121.8 121.8 0 1 0 243.6 0 121.8 121.8 0 1 0-243.6 0Z" fill="currentColor" p-id="16688"></path>
  <path d="M798.2 564.8C739.3 573.3 694 623.9 694 685.1c0 61.3 45.3 111.8 104.2 120.3 58.9-8.5 104.2-59.1 104.2-120.3 0-61.2-45.3-111.7-104.2-120.3z" fill="currentColor" p-id="16689"></path>
  <path d="M898.8 656.4c-11.6-47.7-51.3-84.4-100.6-91.5-49.3 7.2-89 43.8-100.6 91.5h201.2z" fill="currentColor" p-id="16690"></path>
  <path d="M737 680.3m-14.8 0a14.8 14.8 0 1 0 29.6 0 14.8 14.8 0 1 0-29.6 0Z" fill="currentColor" p-id="16691"></path>
  <path d="M773 601.5c-16.6 8.9-29.9 23-37.7 40.2-3.3 7.3 1.8 15.7 9.8 15.7h1.6c4.1 0 7.6-2.6 9.4-6.4 5.7-12.4 15.2-22.7 27-29.3 3.6-2 6.1-5.6 6.1-9.8v-0.8c0.1-8.3-8.9-13.5-16.2-9.6z" fill="currentColor" p-id="16692"></path>
  <path d="M501.7 242.5H554c1.9 0 3.4 1.5 3.4 3.4v360.6c0 1.9-1.5 3.4-3.4 3.4h-52.3c-1.9 0-3.4-1.5-3.4-3.4V245.9c0-1.8 1.5-3.4 3.4-3.4zM316.4 242.5h8.7c13.9 0 25.2 11.3 25.2 25.2l-98.4 309c0 16.3-13.2 29.5-29.5 29.5s-29.5-13.2-29.5-29.5l98.4-309c-0.1-13.9 11.2-25.2 25.1-25.2z" fill="currentColor" p-id="16693"></path>
  <path d="M198.1 656.4m-121.6 0a121.6 121.6 0 1 0 243.2 0 121.6 121.6 0 1 0-243.2 0Z" fill="currentColor" p-id="16694"></path>
  <path d="M198.1 656.4m-121.6 0a121.6 121.6 0 1 0 243.2 0 121.6 121.6 0 1 0-243.2 0Z" fill="currentColor" p-id="16695"></path>
  <path d="M180.6 536.2c-58.8 8.5-104.1 59-104.1 120.2s45.2 111.7 104.1 120.2c58.8-8.5 104.1-59 104.1-120.2-0.1-61.2-45.3-111.7-104.1-120.2z" fill="currentColor" p-id="16696"></path>
  <path d="M281.1 627.6c-11.6-47.7-51.2-84.3-100.5-91.5-49.3 7.2-89 43.9-100.6 91.5h201.1z" fill="currentColor" p-id="16697"></path>
  <path d="M119.4 651.5m-14.8 0a14.8 14.8 0 1 0 29.6 0 14.8 14.8 0 1 0-29.6 0Z" fill="currentColor" p-id="16698"></path>
  <path d="M155.4 572.8c-16.6 8.9-29.9 23-37.7 40.1-3.3 7.3 1.8 15.7 9.8 15.7h1.6c4.1 0 7.6-2.6 9.4-6.4 5.6-12.4 15.2-22.7 27-29.2 3.6-2 6.1-5.6 6.1-9.8v-0.8c0-8.3-8.9-13.5-16.2-9.6z" fill="currentColor" p-id="16699"></path>
  <path d="M527.8 685.2m-121.8 0a121.8 121.8 0 1 0 243.6 0 121.8 121.8 0 1 0-243.6 0Z" fill="currentColor" p-id="16700"></path>
  <path d="M510.2 564.8C451.3 573.3 406 623.9 406 685.1c0 61.3 45.3 111.8 104.2 120.3 58.9-8.5 104.2-59.1 104.2-120.3 0-61.2-45.3-111.7-104.2-120.3z" fill="currentColor" p-id="16701"></path>
  <path d="M610.8 656.4c-11.6-47.7-51.3-84.4-100.6-91.6-49.3 7.2-89 43.8-100.6 91.6h201.2z" fill="currentColor" p-id="16702"></path>
  <path d="M449 680.3m-14.8 0a14.8 14.8 0 1 0 29.6 0 14.8 14.8 0 1 0-29.6 0Z" fill="currentColor" p-id="16703"></path>
  <path d="M485 601.5c-16.6 8.9-29.9 23-37.7 40.2-3.3 7.3 1.8 15.7 9.8 15.7h1.6c4.1 0 7.6-2.6 9.4-6.4 5.7-12.4 15.2-22.7 27-29.3 3.6-2 6.1-5.6 6.1-9.8v-0.8c0-8.3-8.9-13.5-16.2-9.6z" fill="currentColor" p-id="16704"></path>
</svg>