<svg width="100" height="100" viewBox="0 0 100 100" fill="none" xmlns="http://www.w3.org/2000/svg">
<path d="M74.6667 47.9173V29.1673L55.9167 8.33398H12.1667C9.86548 8.33398 8 10.1995 8 12.5007V87.5007C8 89.8019 9.86548 91.6673 12.1667 91.6673H37.1667" stroke="#C1C1C1" stroke-width="8.33333" stroke-linecap="round" stroke-linejoin="round"/>
<path d="M53.834 8.33398V29.1673H74.6673" stroke="#C1C1C1" stroke-width="8.33333" stroke-linecap="round" stroke-linejoin="round"/>
<path d="M45 65.336V82.472H47.808V75.896H52.056C56.232 75.896 58.32 74.12 58.32 70.592C58.32 67.088 56.232 65.336 52.104 65.336H45ZM47.808 67.736H51.888C53.112 67.736 54.024 67.952 54.6 68.408C55.176 68.84 55.488 69.56 55.488 70.592C55.488 71.624 55.2 72.368 54.624 72.824C54.048 73.256 53.136 73.496 51.888 73.496H47.808V67.736Z" fill="#C1C1C1"/>
<path d="M66.7746 65C64.9266 65 63.4146 65.408 62.2146 66.248C60.9186 67.112 60.2946 68.312 60.2946 69.824C60.2946 71.336 60.9426 72.488 62.2626 73.28C62.7666 73.568 64.0866 74.048 66.1986 74.72C68.0946 75.296 69.1986 75.68 69.5346 75.848C70.5906 76.376 71.1426 77.096 71.1426 78.008C71.1426 78.728 70.7586 79.28 70.0386 79.712C69.3186 80.12 68.3106 80.336 67.0626 80.336C65.6466 80.336 64.6146 80.072 63.9426 79.592C63.1986 79.04 62.7426 78.104 62.5506 76.808H59.7666C59.8866 78.992 60.6786 80.576 62.1186 81.584C63.2946 82.4 64.9506 82.808 67.0626 82.808C69.2466 82.808 70.9506 82.352 72.1506 81.488C73.3506 80.6 73.9506 79.376 73.9506 77.84C73.9506 76.256 73.2066 75.032 71.7186 74.144C71.0466 73.76 69.5586 73.184 67.2306 72.464C65.6466 71.96 64.6626 71.6 64.3026 71.408C63.4866 70.976 63.1026 70.376 63.1026 69.656C63.1026 68.84 63.4386 68.24 64.1586 67.88C64.7346 67.568 65.5506 67.424 66.6306 67.424C67.8786 67.424 68.8386 67.64 69.4626 68.12C70.0866 68.576 70.5426 69.344 70.7826 70.4H73.5666C73.3986 68.528 72.7026 67.136 71.5026 66.248C70.3746 65.408 68.7906 65 66.7746 65Z" fill="#C1C1C1"/>
<path d="M76.3594 65.336V82.472H82.6234C85.4074 82.472 87.4954 81.704 88.9354 80.168C90.3034 78.704 90.9994 76.616 90.9994 73.904C90.9994 71.168 90.3034 69.08 88.9354 67.64C87.4954 66.104 85.4074 65.336 82.6234 65.336H76.3594ZM79.1674 67.736H82.0954C84.2314 67.736 85.7914 68.216 86.7754 69.2C87.7354 70.16 88.2154 71.744 88.2154 73.904C88.2154 76.016 87.7354 77.576 86.7754 78.584C85.7914 79.568 84.2314 80.072 82.0954 80.072H79.1674V67.736Z" fill="#C1C1C1"/>
</svg>
