<svg t="1664270368377" class="icon" viewBox="0 0 1024 1024" version="1.1" xmlns="http://www.w3.org/2000/svg" p-id="13520" width="48" height="48"><path d="M705.172 314.875l-303.419-175.179c0 0-43.179-25.856-69.597 19.905l-314.176 543.66c0 0-29.968 42.475 15.653 68.816l307.722 177.662c0 0 41.823 25.042 67.052-18.656l314.997-545.593c0 0 27.377-44.285-18.23-70.615zM497.158 223.925l87.131 50.306-12.609 21.839-87.131-50.307 12.609-21.838zM464.469 205.053c6.020 3.476 8.096 11.154 4.606 17.202-3.491 6.045-11.196 8.113-17.216 4.638-6.009-3.47-8.071-11.177-4.581-17.22 3.491-6.046 11.181-8.086 17.188-4.619zM212.715 817.205c-12.028-6.943-16.13-22.37-9.163-34.436 6.953-12.044 22.378-16.228 34.404-9.284 12.032 6.946 16.116 22.394 9.163 34.437-6.967 12.067-22.373 16.23-34.404 9.283zM416.602 818.362l-306.818-177.142 252.324-437.039 306.819 177.142-252.325 437.039z" p-id="13521"></path><path d="M776.175 207.346l-25.821 44.794c29.276 16.737 50.183 43.945 58.951 76.548 8.842 32.732 4.366 66.902-12.753 96.398l44.794 25.824c23.809-41.271 30.137-89.487 17.721-135.574-12.24-45.936-41.691-84.308-82.891-107.988v0z" p-id="13522"></path><path d="M1006.593 276.628c-22.893-85.455-77.51-156.67-154.077-201.076l-25.821 44.794c64.602 37.236 110.717 97.509 130.036 169.609 19.149 71.946 9.191 147.187-28.118 211.66l44.596 25.77c44.281-76.494 56.127-165.548 33.382-250.753v0z" p-id="13523"></path></svg>