<svg width="53" height="17" viewBox="0 0 53 17" fill="none"
  xmlns="http://www.w3.org/2000/svg">
  <path d="M0.428547 8.50007C0.428547 3.82044 4.22214 0.0268555 8.90176 0.0268555H52.5714V16.9733H8.90177C4.22214 16.9733 0.428547 13.1797 0.428547 8.50007Z" fill="#FFC367"/>
  <path d="M19.2196 6.90953H17.74C17.6618 6.63578 17.5836 6.38811 17.5054 6.1665L16.808 6.28382C16.8992 6.47284 16.9839 6.68141 17.0556 6.90953H15.6543V8.31739H16.2996V7.52873H18.5678V8.29132H19.2196V6.90953ZM16.7884 7.82855C16.7102 8.15444 16.6255 8.48034 16.5277 8.79319H15.5305V9.43846H16.2996C16.1692 9.77739 16.0193 10.1033 15.8629 10.4161C16.2539 10.6247 16.6255 10.8333 16.9709 11.0288C16.5473 11.2961 15.9737 11.5111 15.2437 11.6741L15.5174 12.3194C16.456 12.0912 17.1599 11.7914 17.6292 11.4134C18.1637 11.7393 18.6134 12.0326 18.9719 12.2933L19.4347 11.7588C19.0827 11.5111 18.633 11.2374 18.0724 10.9376C18.3723 10.5269 18.5743 10.0251 18.6786 9.43846H19.3956V8.79319H17.2186C17.2968 8.51944 17.3815 8.21962 17.4598 7.89373L16.7884 7.82855ZM18.0268 9.43846C17.9225 9.90775 17.7335 10.2988 17.4663 10.6117C17.2186 10.4748 16.9448 10.3379 16.6581 10.1945C16.7754 9.97944 16.8862 9.72525 16.997 9.43846H18.0268ZM14.1813 12.2086C14.618 12.2086 14.8396 11.9869 14.8396 11.5437V9.77087C15.009 9.69266 15.185 9.60793 15.3545 9.52319V8.8323C15.185 8.92355 15.009 9.0148 14.8396 9.09302V8.06971H15.3806V7.41141H14.8396V6.25775H14.1487V7.41141H13.4578V8.06971H14.1487V9.37328C13.8749 9.46453 13.6012 9.53623 13.3209 9.60141L13.4969 10.2858C13.712 10.2141 13.9271 10.1359 14.1487 10.0577V11.3677C14.1487 11.5111 14.077 11.5894 13.9466 11.5894C13.7967 11.5894 13.6403 11.5763 13.4773 11.5502L13.6273 12.2086H14.1813ZM24.9553 7.09203L24.8771 8.81927H23.8929L24.0493 7.09203H24.9553ZM23.2281 8.81927H22.4981V9.47757H23.1694L22.9999 11.4394H22.3677L22.2699 10.9506C22.0418 11.1005 21.8072 11.2244 21.5725 11.3286V10.0707H22.3938V9.44498H21.5725V8.8323H22.1722V8.22614H20.6731C20.7773 8.01757 20.8816 7.78944 20.9794 7.54177H22.283V6.90953H21.201C21.2531 6.74007 21.2988 6.57061 21.3444 6.38811L20.6926 6.25123C20.5297 6.99427 20.2494 7.69819 19.8453 8.3565L20.3993 8.70194C20.4645 8.59766 20.5297 8.48686 20.5948 8.36953V8.8323H20.9077V9.44498H20.0864V10.0707H20.9077V11.2504C20.9077 11.3808 20.823 11.4786 20.66 11.5502L20.9403 12.1303C21.4356 11.9869 21.8789 11.8175 22.2699 11.6089V12.0977H25.946V11.4394H25.4311L25.6527 6.45328H22.6349V7.09203H23.3845L23.2281 8.81927ZM23.6582 11.4394L23.8342 9.47757H24.8445L24.7532 11.4394H23.6582ZM28.5988 11.9152H31.2906V12.2542H31.9815V9.3798H29.5634C30.6193 8.83882 31.3558 8.16748 31.7599 7.35927V6.75962H29.3614C29.4656 6.60971 29.5569 6.4598 29.6351 6.30337L28.8856 6.21212C28.501 6.87694 27.758 7.444 26.663 7.90025L27.1192 8.49337C27.7971 8.16748 28.3511 7.80248 28.7943 7.39837H30.9843C30.7106 7.84159 30.2869 8.23918 29.7198 8.58462C29.4526 8.36302 29.1006 8.11534 28.6705 7.84159L28.0773 8.20659C28.501 8.44775 28.853 8.67587 29.1267 8.89748C28.4098 9.22337 27.5168 9.48409 26.4414 9.67962L26.7933 10.3314C27.1844 10.2402 27.5624 10.1359 27.9144 10.0316V12.2542H28.5988V11.9152ZM31.2906 11.2569H28.5988V10.012H31.2906V11.2569ZM33.0439 7.95239V8.59766H33.8326C33.624 9.22337 33.3047 9.78391 32.868 10.2793L33.1678 11.0419C33.4676 10.5986 33.7218 10.1163 33.9239 9.58186V12.2411H34.5691V9.49712C34.719 9.69918 34.8885 9.95337 35.084 10.2597L35.4686 9.68614C35.1623 9.3798 34.8624 9.09953 34.5691 8.85186V8.59766H35.2535V7.95239H34.5691V7.11811C34.8689 7.06596 35.1623 7.00078 35.4425 6.92257L35.2014 6.28382C34.5691 6.47936 33.8522 6.60319 33.0505 6.66837L33.1873 7.30712C33.435 7.28105 33.6827 7.25498 33.9239 7.22239V7.95239H33.0439ZM36.7722 12.2346C37.2154 12.2346 37.437 12.013 37.437 11.5698V8.20007H36.7461V11.4069C36.7461 11.5502 36.6744 11.6285 36.5375 11.6285C36.3681 11.6285 36.1921 11.6089 36.0031 11.5828L36.153 12.2346H36.7722ZM35.8466 9.10605C35.7032 9.80998 35.4621 10.4683 35.1231 11.094L35.7098 11.4655C36.0356 10.8398 36.2898 10.0968 36.4723 9.23641L35.8466 9.10605ZM38.2843 9.04087L37.6781 9.24293C37.9389 9.90123 38.1735 10.6573 38.3951 11.5177L39.0208 11.2374C38.8123 10.4618 38.5711 9.73177 38.2843 9.04087ZM36.4593 7.73078H38.1214C38.0497 8.06319 37.9649 8.3565 37.8672 8.61069L38.5255 8.80623C38.6428 8.37605 38.734 7.94587 38.7992 7.51569V7.079H36.707C36.7852 6.83132 36.8504 6.57712 36.9025 6.31641L36.2312 6.23168C36.0878 7.02686 35.801 7.70471 35.3839 8.25221L35.8075 8.79319C36.0682 8.47382 36.2833 8.12186 36.4593 7.73078Z" fill="#744E00"/>
</svg>
