<svg width="28" height="27" viewBox="0 0 28 27" fill="none" xmlns="http://www.w3.org/2000/svg">
<g clip-path="url(#clip0)">
<path d="M13.1439 1.17154C13.4602 0.646108 14.2219 0.646109 14.5381 1.17154L18.4837 7.72772C18.5973 7.91648 18.7826 8.05111 18.9972 8.10081L26.4518 9.8273C27.0492 9.96567 27.2846 10.6901 26.8826 11.1532L21.8665 16.9317C21.7221 17.098 21.6513 17.3159 21.6704 17.5353L22.332 25.1586C22.385 25.7695 21.7687 26.2172 21.2041 25.978L14.1584 22.9931C13.9555 22.9072 13.7265 22.9072 13.5237 22.9931L6.478 25.978C5.91334 26.2172 5.29707 25.7695 5.35009 25.1586L6.01168 17.5353C6.03073 17.3159 5.95996 17.098 5.81554 16.9317L0.799484 11.1532C0.397485 10.6901 0.632881 9.96567 1.23031 9.8273L8.68486 8.10081C8.89948 8.05111 9.08478 7.91648 9.19837 7.72772L13.1439 1.17154Z" fill="#17C8C8"/>
</g>
<g clip-path="url(#clip1)">
<path d="M13.5724 1.42935C13.6942 1.22684 13.9878 1.22684 14.1097 1.42936L18.0553 7.98554C18.2387 8.29031 18.5379 8.50766 18.8844 8.58792L26.3389 10.3144C26.5692 10.3677 26.6599 10.647 26.505 10.8255L21.4889 16.6039C21.2558 16.8725 21.1415 17.2242 21.1723 17.5786L21.8338 25.2018C21.8543 25.4373 21.6168 25.6098 21.3991 25.5176L14.3534 22.5327C14.0259 22.394 13.6561 22.394 13.3286 22.5327L6.28295 25.5176C6.06531 25.6098 5.82778 25.4373 5.84822 25.2018L6.50981 17.5786C6.54057 17.2242 6.42629 16.8725 6.19312 16.6039L1.17707 10.8255C1.02212 10.647 1.11285 10.3677 1.34312 10.3144L8.79767 8.58792C9.1442 8.50766 9.44337 8.29031 9.62678 7.98554L13.5724 1.42935Z" stroke="#17C8C8"/>
</g>
<defs>
<clipPath id="clip0">
<rect width="14" height="27" fill="white"/>
</clipPath>
<clipPath id="clip1">
<rect width="14" height="27" fill="white" transform="translate(14)"/>
</clipPath>
</defs>
</svg>
