<svg width="25" height="27" viewBox="0 0 25 27" fill="none"
  xmlns="http://www.w3.org/2000/svg">
  <g clip-path="url(#clip0)">
    <path d="M13.1439 1.17154C13.4602 0.646108 14.2219 0.646109 14.5381 1.17154L18.4837 7.72772C18.5973 7.91648 18.7826 8.05111 18.9972 8.10081L26.4518 9.8273C27.0492 9.96567 27.2846 10.6901 26.8826 11.1532L21.8665 16.9317C21.7221 17.098 21.6513 17.3159 21.6704 17.5353L22.332 25.1586C22.385 25.7695 21.7687 26.2172 21.2041 25.978L14.1584 22.9931C13.9555 22.9072 13.7265 22.9072 13.5237 22.9931L6.478 25.978C5.91334 26.2172 5.29707 25.7695 5.35009 25.1586L6.01168 17.5353C6.03073 17.3159 5.95996 17.098 5.81554 16.9317L0.799484 11.1532C0.397485 10.6901 0.632881 9.96567 1.23031 9.8273L8.68486 8.10081C8.89948 8.05111 9.08478 7.91648 9.19837 7.72772L13.1439 1.17154Z" fill="#546DF7"/>
  </g>
  <path d="M16 0V26" stroke="#546DF7" stroke-width="0.827585"/>
  <path d="M17 11.2C17 11.0895 17.0895 11 17.2 11H21V15H17.2C17.0895 15 17 14.9105 17 14.8V11.2Z" fill="#546DF7"/>
  <path d="M21 16.5172V9.48284C21 9.30466 21.2154 9.21543 21.3414 9.34142L24.8586 12.8586C24.9367 12.9367 24.9367 13.0633 24.8586 13.1414L21.3414 16.6586C21.2154 16.7846 21 16.6953 21 16.5172Z" fill="#546DF7"/>
  <defs>
    <clipPath id="clip0">
      <rect width="15" height="27" fill="white"/>
    </clipPath>
  </defs>
</svg>
