<svg t="1664270841275" class="icon" viewBox="0 0 1024 1024" version="1.1" xmlns="http://www.w3.org/2000/svg" p-id="2948" width="48" height="48"><path d="M512 896c-209.962667 0-384-173.994667-384-384 0-209.962667 174.037333-384 384-384 210.005333 0 384 174.037333 384 384 0 210.005333-173.994667 384-384 384z m0-720A335.402667 335.402667 0 0 0 176 512 335.36 335.36 0 0 0 512 848 335.402667 335.402667 0 0 0 848 512 335.402667 335.402667 0 0 0 512 176z m123.648 366.293333l-180.224 123.477334c-24.448 16.810667-44.245333 6.4-44.245333-23.210667V381.44c0-29.610667 19.754667-40.021333 44.16-23.296l180.309333 123.52c24.405333 16.768 24.448 43.818667 0 60.586667z" fill="#2c2c2c" p-id="2949"></path></svg>