<svg t="1657006307086" class="icon" viewBox="0 0 1024 1024" version="1.1" xmlns="http://www.w3.org/2000/svg" p-id="23912" width="48" height="48"><path d="M598.847997 571.156308l0 49.741891c191.905728 17.447371 310.278719 90.323145 310.278719 142.534274 0 59.69252-154.717757 146.400325-397.159462 146.400325-242.438635 0-397.153322-86.708827-397.153322-146.400325 0-57.162908 141.886521-139.096988 366.819456-145.938813l5.525853 44.207851c-158.7547 2.167363-285.467637 45.743834-285.467637 99.197256 0 54.834886 133.35931 99.289354 297.867038 99.289354s297.867038-44.454468 297.867038-99.289354c0-43.215244-82.963527-79.875189-198.578708-93.519953l0 50.0233c78.29725 10.001795 127.444601 30.125111 144.428414 43.496653-23.309892 18.349927-106.500593 49.644677-243.716744 49.644677-137.213082 0-220.406852-31.29475-243.716744-49.644677 22.956851-18.071587 103.995539-48.698119 237.514485-49.622164l6.202259 49.622164 43.908022-351.266225c82.650395-14.553461 145.364739-85.356017 145.364739-170.508395 0-95.683223-79.183434-173.249833-176.86108-173.249833s-176.86108 77.56661-176.86108 173.249833c0 76.098165 50.087768 140.733255 119.728872 164.006308l20.61348 164.905794c-229.680053 8.15268-410.282341 92.518137-410.282341 195.396225 0 108.272959 200.038966 196.045001 446.801069 196.045001s446.801069-87.775112 446.801069-196.045001C958.771393 668.209738 804.001447 588.906577 598.847997 571.156308zM384.752898 239.125169c0-68.156286 57.069787-123.605156 127.216403-123.605156s127.216403 55.44887 127.216403 123.605156-57.069787 123.605156-127.216403 123.605156S384.752898 307.281455 384.752898 239.125169z" p-id="23913"></path></svg> 