<svg t="1657003124814" class="icon" viewBox="0 0 1024 1024" version="1.1" xmlns="http://www.w3.org/2000/svg" p-id="75935" width="48" height="48"><path d="M128 128v768h768V128z m704 704H192V192h640z" fill="#333333" p-id="75936"></path><path d="M517.12 315.36l-45.28-45.28-100.64 100.64-60.64-60.48-45.12 45.28 105.76 105.76 145.92-145.92zM692.8 586.56l-47.36 47.52-48.48-48.48-45.28 45.28 48.48 48.32-51.36 51.52 45.12 45.28 51.52-51.52 50.4 50.56 45.28-45.28-50.4-50.56 47.36-47.36-45.28-45.28zM297.456 681.36l384-383.984 45.248 45.264-384 383.984z" fill="#333333" p-id="75937"></path></svg>