<svg width="454" height="256" viewBox="0 0 454 256" fill="none"
  xmlns="http://www.w3.org/2000/svg">
  <rect width="454" height="256" fill="white" fill-opacity="0.01"/>
  <path d="M213.5 226C276.737 226 328 209.211 328 188.5C328 167.789 276.737 151 213.5 151C150.263 151 99 167.789 99 188.5C99 209.211 150.263 226 213.5 226Z" fill="url(#paint0_linear)"/>
  <path fill-rule="evenodd" clip-rule="evenodd" d="M89.9238 89.1629C101.461 87.2883 106.13 85.878 117.394 74.9238C128.659 63.9695 140.08 79.9512 157.02 73.5348C173.959 67.1183 175.508 59.3497 201.418 83.1465C213.361 93.2602 222.861 89.2563 228.715 93.2602C234.568 97.2641 240 113 240 113H230.561H89.9238C89.9238 113 72 106.705 72 102.544C72 98.3833 78.3867 91.0375 89.9238 89.1629Z" fill="url(#paint1_linear)"/>
  <path fill-rule="evenodd" clip-rule="evenodd" d="M252.87 118.381C261.797 116.996 265.41 115.953 274.127 107.857C282.843 99.7601 291.681 111.573 304.789 106.83C317.897 102.087 319.095 96.3454 339.145 113.934C348.387 121.41 355.737 118.45 360.267 121.41C364.797 124.369 369 136 369 136H361.696H252.87C252.87 136 239 131.347 239 128.272C239 125.196 243.942 119.767 252.87 118.381Z" fill="url(#paint2_linear)"/>
  <path fill-rule="evenodd" clip-rule="evenodd" d="M176.232 52C170.029 52 165 57.0287 165 63.232V186.947C165 187.529 165.471 188 166.053 188H256.043C263.797 188 270.083 181.714 270.083 173.96V67.4227H295V66.04C295 58.2859 288.714 52 280.96 52H269.03H265.326H176.232Z" fill="url(#paint3_linear)"/>
  <rect opacity="0.712221" x="172" y="59" width="88" height="122" rx="4.32" fill="url(#paint4_linear)"/>
  <path fill-rule="evenodd" clip-rule="evenodd" d="M244.241 163H145V173.96C145 181.714 151.286 188 159.04 188H257H257.259C264.163 188 269.759 182.404 269.759 175.5C269.759 175.477 269.759 175.455 269.759 175.433C269.722 182.38 263.956 188 257 188C250.021 188 244.241 182.343 244.241 175.364V163Z" fill="url(#paint5_linear)"/>
  <path fill-rule="evenodd" clip-rule="evenodd" d="M282.5 52C275.596 52 270 57.5964 270 64.5V75H295V64.5C295 57.5964 289.404 52 282.5 52Z" fill="url(#paint6_linear)"/>
  <path d="M133 89L166.91 106.113L160.034 115.477L133 89Z" fill="url(#paint7_linear)"/>
  <path d="M133 89L160.03 115.475L162.159 104.505L133 89Z" fill="url(#paint8_linear)"/>
  <path d="M133 89L149.623 102.049L162.154 104.502L133 89Z" fill="url(#paint9_linear)"/>
  <path d="M137.627 91.3301L176.963 106.361L166.915 106.113L137.627 91.3301Z" fill="url(#paint10_linear)"/>
  <path opacity="0.398493" d="M289 77C287.647 93.3625 280.506 101.094 273.367 105.411C262.003 112.283 248.863 108.862 245.613 105.411C240.321 99.7912 250.168 91.235 259.922 97.6216C269.677 104.008 242.778 126.516 214.685 122.53C186.591 118.545 164 107.654 164 107.654" stroke="url(#paint11_linear)" stroke-width="1.08" stroke-linecap="round" stroke-dasharray="3.24"/>
  <path fill-rule="evenodd" clip-rule="evenodd" d="M108.778 158.279C108.778 157.742 109.213 157.307 109.75 157.307H111.718C112.255 157.307 112.69 157.742 112.69 158.279V176.522C112.69 177.059 112.255 177.494 111.718 177.494H109.75C109.214 177.494 108.778 177.059 108.778 176.522L108.778 158.279Z" fill="#F3F3F3"/>
  <path fill-rule="evenodd" clip-rule="evenodd" d="M106.724 133.22C103.091 140.763 90.5831 163.896 108.109 166.486C125.635 169.076 124.853 153.679 121.779 148.168C118.705 142.658 115.236 139.573 115.236 133.22C115.236 126.868 110.356 125.678 106.724 133.22Z" fill="url(#paint12_linear)"/>
  <path fill-rule="evenodd" clip-rule="evenodd" d="M331.4 179.793C331.4 179.256 331.836 178.821 332.372 178.821H332.562C333.099 178.821 333.534 179.256 333.534 179.793V190.028C333.534 190.565 333.099 191 332.562 191H332.372C331.836 191 331.4 190.565 331.4 190.028L331.4 179.793Z" fill="#F3F3F3"/>
  <path fill-rule="evenodd" clip-rule="evenodd" d="M330.044 163.279C327.671 168.017 319.504 182.547 330.948 184.174C342.393 185.801 341.883 176.129 339.875 172.668C337.868 169.207 335.602 167.269 335.602 163.279C335.602 159.289 332.416 158.541 330.044 163.279Z" fill="url(#paint13_linear)"/>
  <rect width="44" height="30" rx="2" transform="matrix(-1 0 0 1 320 153)" fill="url(#paint14_linear)"/>
  <path d="M278.006 180.402L275.177 181.886L268.439 172.307L272.273 171L278.006 180.402Z" fill="#FFBCA8"/>
  <path d="M274.867 181.119C274.867 181.119 274.753 181.132 274.699 181.182C273.94 181.881 273.384 182.618 272.968 182.987C272.283 183.595 271.693 184.209 271.247 184.565C270.801 184.922 269.949 185.441 269.603 185.9C269.257 186.359 269.317 186.777 269.389 187.031C269.433 187.186 269.438 187.479 269.613 187.838C269.68 187.976 269.8 188.103 269.92 188.069C272.117 187.452 274.28 186.372 275.49 185.764C276.687 185.163 278.505 184.299 280.082 183.521C280.244 183.441 280.286 183.206 280.197 183.02C279.685 181.936 279.403 181.358 279.105 180.967C278.821 180.592 278.543 180.113 278.013 179.714C277.924 179.647 277.802 179.581 277.736 179.668C277.543 179.924 277.384 180.136 277.194 180.388C276.866 180.823 276.183 181.026 275.887 181.095C275.591 181.164 274.867 181.119 274.867 181.119Z" fill="#3E466E"/>
  <path d="M267.843 183.278L264.439 182.852L268.939 175.131L273.439 176.631L267.843 183.278Z" fill="#FFBCA8"/>
  <path fill-rule="evenodd" clip-rule="evenodd" d="M284.056 166.247C288.64 163.648 296.645 159.108 298.001 153.156C299.748 145.486 298.44 146.752 298.44 146.752L290.638 143.432L283.162 143L282.697 144.787L279.541 144.976L275.919 145.997C275.919 145.997 265.823 149.359 259.949 153.942C256.878 156.338 257.129 158.722 258.069 160.452L258.049 160.462C258.049 160.462 264.148 170.346 267.743 175.281C266.687 177.356 265.947 178.872 265.97 179.022C266.047 179.529 269.763 180.827 271.572 180.81C272.585 180.8 274.766 177.359 276.889 174.01C278.554 171.383 280.183 168.813 281.185 168C281.695 167.586 282.733 166.997 284.056 166.247ZM271.952 167.177C270.12 164.135 267.947 160.918 267.947 160.918L267.033 159.539C267.108 159.507 267.167 159.484 267.208 159.471C267.9 159.262 275.326 158.073 275.326 158.073L274.668 161.909C274.648 162.025 273.478 164.261 272.002 167.081C271.985 167.113 271.969 167.145 271.952 167.177Z" fill="url(#paint15_linear)"/>
  <path fill-rule="evenodd" clip-rule="evenodd" d="M286.837 103.821C286.837 103.821 285.669 110.316 287.935 111.46C289.913 112.377 288.004 114.518 287.604 114.751C287.204 114.984 288.312 116.083 288.312 116.083C288.312 116.083 290.188 117.187 291.069 116.962C291.951 116.737 293.219 114.751 293.219 114.751C293.219 114.751 290.856 112.86 291.574 111.717C292.292 110.573 293.755 109.332 293.755 109.332C293.755 109.332 295.176 108.12 293.646 107.488C294.016 106.343 293.92 104.875 293.92 104.875L290.6 103.821L287.22 103L286.837 103.821Z" fill="url(#paint16_linear)"/>
  <path fill-rule="evenodd" clip-rule="evenodd" d="M288.775 104.928C292.535 104.008 293.534 105.421 293.534 106.019C293.534 106.616 293.178 108 293.178 108C293.178 108 293.872 107.735 294.155 107.597C295.308 107.037 296.072 106.044 296.343 105.27C296.852 103.825 295.358 100.758 291.486 101.215C290.136 100.996 289.922 99.2886 287.576 100.339C285.23 101.389 284.439 100.581 284.439 101.658C284.439 102.735 284.536 106.053 288.775 104.928Z" fill="#353D64"/>
  <path fill-rule="evenodd" clip-rule="evenodd" d="M279.48 121.482C279.48 121.482 275.562 130.082 274.698 132.346C274.296 133.286 264.333 137.023 264.333 137.023C264.333 137.023 260.993 137.31 260.514 138.968C260.332 139.678 260.414 140.894 261.547 140.995C262.68 141.096 264.778 139.321 264.778 139.321C264.778 139.321 275.907 139.713 278.016 135.683C280.125 131.653 284.439 123.208 284.439 123.208L279.825 121L279.48 121.482Z" fill="url(#paint17_linear)"/>
  <path fill-rule="evenodd" clip-rule="evenodd" d="M287.063 114.08C287.063 114.08 290.439 117.653 293.27 114.08C293.598 113.865 300.527 113.528 305.438 121.31C305.512 121.753 301.305 126.123 301.305 126.123H300.446C300.446 126.123 300.441 142.959 298.439 151.48C298.177 152.366 277.773 146.028 277.773 146.028C277.773 146.028 278.907 131.585 280.287 127.279C279.96 126.634 275.439 123.062 275.439 123.062C275.439 123.062 276.864 120.075 279.721 117.32C282.578 114.565 287.063 114.08 287.063 114.08Z" fill="#5B73EA"/>
  <path fill-rule="evenodd" clip-rule="evenodd" d="M300.079 124.934C300.207 126.039 304.257 129.812 305.763 131.166C306.139 131.184 298.076 137.829 297.45 138.602C295.742 140.712 296.337 143 298.202 143C300.066 143 299.483 139.512 299.793 139.331C305.213 136.163 305.763 136.163 309.35 134.012C312.471 132.249 308.298 126.913 304.274 121.028C300.251 115.143 299.95 123.829 300.079 124.934Z" fill="url(#paint18_linear)"/>
  <path fill-rule="evenodd" clip-rule="evenodd" d="M300.443 117C300.443 117 301.751 117.623 302.265 117.931C303.159 118.468 303.771 118.995 304.165 119.314C305.387 120.3 306.002 121.312 306.356 122.071C306.652 122.596 303.515 127.35 300.443 126.811C299.814 126.786 298.439 123.867 298.439 123.867L300.443 117Z" fill="#5B73EA"/>
  <path d="M265.081 182.062C265.081 182.062 264.984 182.002 264.91 182.008C263.882 182.092 262.991 182.331 262.435 182.365C261.521 182.423 260.678 182.543 260.107 182.549C259.536 182.556 258.545 182.44 257.991 182.589C257.436 182.737 257.225 183.104 257.126 183.348C257.065 183.498 256.888 183.732 256.805 184.122C256.773 184.272 256.789 184.447 256.905 184.494C259.016 185.36 261.385 185.84 262.713 186.106C264.026 186.369 265.991 186.808 267.712 187.165C267.89 187.202 268.067 187.043 268.112 186.842C268.375 185.672 268.509 185.043 268.516 184.552C268.522 184.081 268.598 183.532 268.426 182.892C268.397 182.784 268.341 182.657 268.236 182.686C267.926 182.769 267.67 182.837 267.365 182.919C266.839 183.06 266.176 182.799 265.9 182.671C265.625 182.544 265.081 182.062 265.081 182.062Z" fill="#3E466E"/>
  <defs>
    <linearGradient id="paint0_linear" x1="99" y1="151" x2="99" y2="226" gradientUnits="userSpaceOnUse">
      <stop stop-color="#FCFCFE"/>
      <stop offset="1" stop-color="#EBEBF0" stop-opacity="0.01"/>
    </linearGradient>
    <linearGradient id="paint1_linear" x1="79.9134" y1="71.3335" x2="79.9134" y2="113" gradientUnits="userSpaceOnUse">
      <stop stop-color="#F6F6F7"/>
      <stop offset="1" stop-color="white"/>
    </linearGradient>
    <linearGradient id="paint2_linear" x1="245.123" y1="105.203" x2="245.123" y2="136" gradientUnits="userSpaceOnUse">
      <stop stop-color="#F6F6F7"/>
      <stop offset="1" stop-color="white"/>
    </linearGradient>
    <linearGradient id="paint3_linear" x1="297" y1="209.188" x2="297" y2="40.4998" gradientUnits="userSpaceOnUse">
      <stop stop-color="#D8DAE4"/>
      <stop offset="1" stop-color="#FAFAFC"/>
    </linearGradient>
    <linearGradient id="paint4_linear" x1="175.54" y1="59" x2="175.54" y2="171.184" gradientUnits="userSpaceOnUse">
      <stop stop-color="white"/>
      <stop offset="1" stop-color="#FAFCFE"/>
    </linearGradient>
    <linearGradient id="paint5_linear" x1="145" y1="163" x2="145" y2="188" gradientUnits="userSpaceOnUse">
      <stop stop-color="#EEF0F8"/>
      <stop offset="1" stop-color="#BDC0C8"/>
    </linearGradient>
    <linearGradient id="paint6_linear" x1="292.814" y1="73.6024" x2="292.814" y2="54.6247" gradientUnits="userSpaceOnUse">
      <stop stop-color="#EEF0F8"/>
      <stop offset="1" stop-color="#BDC0C8"/>
    </linearGradient>
    <linearGradient id="paint7_linear" x1="123.512" y1="101.432" x2="144.704" y2="126.424" gradientUnits="userSpaceOnUse">
      <stop offset="0.017183" stop-color="#D36C16"/>
      <stop offset="1" stop-color="#D16911"/>
    </linearGradient>
    <linearGradient id="paint8_linear" x1="121.033" y1="101.611" x2="144.709" y2="127.864" gradientUnits="userSpaceOnUse">
      <stop stop-color="#FFC652"/>
      <stop offset="1" stop-color="#D97945"/>
    </linearGradient>
    <linearGradient id="paint9_linear" x1="125.498" y1="96.1877" x2="133.313" y2="113.334" gradientUnits="userSpaceOnUse">
      <stop stop-color="#FEBE86"/>
      <stop offset="1" stop-color="#FFD286"/>
    </linearGradient>
    <linearGradient id="paint10_linear" x1="126.065" y1="98.8644" x2="132.497" y2="118.558" gradientUnits="userSpaceOnUse">
      <stop stop-color="#FFC185"/>
      <stop offset="1" stop-color="#FFD185"/>
    </linearGradient>
    <linearGradient id="paint11_linear" x1="167.619" y1="78.3043" x2="167.619" y2="121.64" gradientUnits="userSpaceOnUse">
      <stop stop-color="#FFD185" stop-opacity="0.24949"/>
      <stop offset="1" stop-color="#DE8443"/>
    </linearGradient>
    <linearGradient id="paint12_linear" x1="99" y1="128" x2="99" y2="166.777" gradientUnits="userSpaceOnUse">
      <stop stop-color="#EEEEEE"/>
      <stop offset="1" stop-color="#FCFCFD"/>
    </linearGradient>
    <linearGradient id="paint13_linear" x1="325" y1="160" x2="325" y2="184.357" gradientUnits="userSpaceOnUse">
      <stop stop-color="#EEEEEE"/>
      <stop offset="1" stop-color="#FCFCFD"/>
    </linearGradient>
    <linearGradient id="paint14_linear" x1="0" y1="0" x2="0" y2="30" gradientUnits="userSpaceOnUse">
      <stop stop-color="#EEF0F8"/>
      <stop offset="1" stop-color="#BDC0C8"/>
    </linearGradient>
    <linearGradient id="paint15_linear" x1="260.67" y1="176.891" x2="271.798" y2="146.264" gradientUnits="userSpaceOnUse">
      <stop stop-color="#7880C3"/>
      <stop offset="1" stop-color="#5C68BB"/>
    </linearGradient>
    <linearGradient id="paint16_linear" x1="281.583" y1="112.662" x2="292.5" y2="117.082" gradientUnits="userSpaceOnUse">
      <stop stop-color="#FFD2C4"/>
      <stop offset="1" stop-color="#FFB9A3"/>
    </linearGradient>
    <linearGradient id="paint17_linear" x1="264.398" y1="124.756" x2="267.806" y2="138.499" gradientUnits="userSpaceOnUse">
      <stop stop-color="#FFD2C4"/>
      <stop offset="1" stop-color="#FFB9A3"/>
    </linearGradient>
    <linearGradient id="paint18_linear" x1="298.42" y1="138.443" x2="303.76" y2="123.792" gradientUnits="userSpaceOnUse">
      <stop stop-color="#FFD2C4"/>
      <stop offset="1" stop-color="#FFB9A3"/>
    </linearGradient>
  </defs>
</svg>
