<svg width="37" height="37" viewBox="0 0 37 37" fill="none" xmlns="http://www.w3.org/2000/svg">
<path d="M12.8889 26.8945H24.3458C24.9276 26.8945 25.4011 27.3633 25.4046 27.943C25.4046 28.5227 24.9313 28.9912 24.3458 28.9912H12.8889C12.3033 28.9912 11.8301 28.5227 11.8301 27.943C11.8301 27.3633 12.3033 26.8945 12.8889 26.8945Z" fill="#C1C1C1"/>
<path d="M25.9746 6.55149H11.4566C11.0193 6.55149 10.6651 6.19718 10.6651 5.76796C10.6651 5.33502 11.0193 4.98438 11.4566 4.98438H25.9746C26.4119 4.98438 26.7661 5.33502 26.7661 5.76796C26.7661 6.20085 26.4119 6.55149 25.9746 6.55149Z" fill="#C1C1C1"/>
<path d="M26.7865 10.5906H10.2917C9.85421 10.5906 9.4965 10.2399 9.50003 9.80697C9.50003 9.37404 9.85421 9.02344 10.2917 9.02344H26.7865C27.2238 9.02344 27.578 9.37404 27.578 9.80697C27.578 10.2399 27.2238 10.5906 26.7865 10.5906Z" fill="#C1C1C1"/>
<path d="M28.0527 14.6261H9.12544C8.68812 14.6261 8.33398 14.272 8.33398 13.8425C8.33398 13.4097 8.68812 13.059 9.12544 13.059H28.0527C28.49 13.059 28.8442 13.4097 28.8442 13.8425C28.8442 14.2755 28.49 14.6261 28.0527 14.6261Z" fill="#C1C1C1"/>
<path fill-rule="evenodd" clip-rule="evenodd" d="M31.5177 3.09325L36.4871 18.8258C36.6966 19.2622 36.8231 19.7489 36.8231 20.2641V33.2307C36.8231 35.1057 35.2799 36.6335 33.3861 36.6335H3.61274C1.71902 36.6335 0.175781 35.1057 0.175781 33.2307V20.2641C0.175781 19.7489 0.302321 19.2659 0.508237 18.8258L5.48138 3.08976C5.96915 1.53677 7.64264 0.363281 9.37385 0.363281H27.6253C29.3564 0.363281 31.0297 1.53677 31.5177 3.09325ZM33.3862 34.0138C33.8198 34.0138 34.1777 33.6632 34.1777 33.2303H34.174V20.2637C34.174 19.8343 33.8198 19.4801 33.3825 19.4801H24.2894C23.1798 21.609 20.9606 22.9865 18.4996 22.9865C16.0383 22.9865 13.8157 21.6126 12.706 19.4801H3.61277C3.17546 19.4801 2.82132 19.8308 2.82132 20.2637V33.2303C2.82132 33.6597 3.17546 34.0138 3.61277 34.0138H33.3862ZM9.37033 2.98047C8.81371 2.98047 8.14876 3.40987 8.00423 3.86777L3.89844 16.8632H13.5772C14.141 16.8632 14.6433 17.2173 14.8277 17.7469C15.3698 19.3142 16.8444 20.3695 18.4997 20.3695C20.1548 20.3695 21.6294 19.3142 22.1716 17.7469C22.3523 17.2173 22.8582 16.8595 23.4221 16.8595H33.1008L28.9952 3.87143C28.8614 3.44919 28.2506 2.98047 27.6254 2.98047H9.37033Z" fill="#C1C1C1"/>
</svg>
